<svg width="1318" height="755" viewBox="0 0 1318 755" fill="none" xmlns="http://www.w3.org/2000/svg">
    <path d="M423.554 677.206L424.008 676.322L424.032 672.807L418.229 666.663L415.149 660.878L412.331 653.73L409.585 652.056L407.244 645.41L407.029 644.143L407.316 641.561L405.716 638.908L402.444 635.083L401.513 632.357L401.37 626.739L402.421 624.014L402.994 620.524L405.215 613.352L407.006 609.766L410.683 606.873L411.328 604.459L411.686 601.231L411.113 597.502L412.617 592.912L412.331 590.186L410.922 586.29L408.797 583.277L408.414 581.006L412.14 573.452L415.602 563.483L418.11 559.753L419.638 558.893L421.548 558.558L421.883 559.227L420.593 561.666L419.328 569.005L420.999 572.543L420.187 577.707L421.31 578.855L426.969 576.464L427.686 573.476L429.262 569.435L433.536 562.001L434.205 559.706L441.775 555.498L444.617 555.283L449.607 552.797L454.957 550.741L459.303 545.601L460.879 544.381L464.15 542.971L467.231 538.333L473.32 535.488L473.989 533.719L475.637 532.811L477.213 532.619L481.511 531.089L484.902 528.986L487.529 526.762L489.63 527.217L490.753 528.34L491.899 528.651L496.842 525.997L499.397 526.882L500.233 527.838L502.048 528.651L503.982 529.01L505.63 528.986L512.866 527.503L517.14 525.639L522.824 520.164L525.665 518.467L526.023 519.16L527.122 519.184L535.169 517.845L538.083 518.013L541.808 516.769L545.677 512.132L546.441 510.052L549.044 508.067L551.862 507.804L558.214 509.382L562.034 510.864L567.312 508.139L579.085 506.418L581.616 505.581L595.658 499.724L599.526 497.716L605.998 492.313L611.49 484.878L615.406 476.439L618.988 471.61L618.678 469.411L619.609 467.355L620.23 466.757L621.926 467.163L623.215 466.47L625.125 464.94L626.51 462.908L628.11 462.119L633.531 457.84L634.319 455.927L634.176 454.445L633.412 453.728L631.358 453.154L630.188 451.409L629.901 446.293L628.373 442.324L628.445 437.041L629.257 433.814L631.382 430.156L634.558 427.144L636.325 426.02L639.621 425.996L638.307 423.056L639.406 421.574L640.122 421.287L640.695 421.837H641.316L644.229 420.833L644.492 420.068L643.823 419.087L644.444 416.482L645.185 415.645L646.546 415.358L647.907 413.852L648.05 412.37L648.599 411.485L650.438 410.816L652.205 412.585L651.656 413.278L650.367 413.135L649.507 416.123L651.155 418.37L653.137 419.613L653.662 421.669L658.629 430.969L665.005 441.177L665.578 443.4L666.056 441.034L665.172 439.312L665.268 437.185L666.701 432.834L665.53 429.248L666.008 427.192L667.656 427.144L670.951 431.136L672.862 432.858L673.793 433.264L674.438 432.905L673.435 432.427L672.241 430.945L671.309 427.216L673.769 424.395L672.909 423.94L670.927 424.538L670.521 424.251L669.256 421.55L666.414 418.466L666.557 415.525L663.644 415.573L661.662 413.78L663.429 413.708L667.25 414.569L669.017 411.891L669.232 410.505L668.969 409.453L666.08 408.879L665.148 408.043L665.077 405.676L665.435 404.911L669.471 404.026L671.548 405.652L670.975 406.919L669.638 407.278L672.408 410.194L673.769 410.481L673.817 409.429L675.679 406.895L678.832 407.349L680.217 407.971L680.909 408.425L681.84 410.648L682.557 411.15L685.231 411.294L686.569 409.764L688.933 410.911L691.607 411.174L695.5 410.624L698.27 411.844L699.75 411.222L697.745 411.031L694.688 409.596L692.563 409.094L691.201 408.999L689.076 409.62H687.476L687.022 409.142L686.378 406.25L687.787 403.046L688.837 402.807L690.079 404.696L692.013 403.357L691.822 400.894L692.586 398.097L695.5 395.157L694.043 394.559L692.634 394.966L690.533 398.552L689.315 398.576L687.046 396.615L686.306 391.356L688.527 386.264L689.339 385.905L691.751 387.292L693.685 386.288L694.139 385.618L693.852 380.478L694.951 380.215L700.324 382.965L702.425 384.997L707.297 387.363L704.574 384.949L704.431 384.351L705.673 382.08L705.123 381.506L702.903 381.482L700.324 382.439L700.037 380.909L700.992 379.57L701.995 379.092L702.735 379.57L703.762 377.801L702.95 377.586L699.559 379.833L698.843 379.809L698.079 377.777L698.915 376.701L700.037 376.175L701.565 376.629L702.115 376.462L703.476 375.506L703.094 374.597L704.646 373.498L706.437 377.538L706.891 377.825L707.153 376.677L706.819 374.382L709.876 376.175L709.947 377.131L710.974 377.633L713.386 377.514L713.911 377.012L713.458 376.629L712.669 376.701L711.977 376.08L712.741 375.338L709.923 373.33L707.368 372.063L708.228 371.059L708.92 370.82L706.15 366.708L708.944 362.716L711.356 360.708L712.717 361.281L717.923 361.401L718.186 358.15L717.684 355.018L718.019 353.225L718.687 352.723L721.553 354.086L719.308 363.6L719.786 363.098L721.386 357.576L724.514 359.178L724.036 362.046L724.538 362.979L726.066 363.935L728.359 361.377L729.577 360.516L730.317 355.95L732.299 351.91L732.394 350.237L730.699 345.886L729.051 344.834L730.341 344.547L732.418 344.858L734.209 345.766L733.994 347.774L732.657 348.348L733.541 351.265L734.639 351.575L736.024 352.986L736.693 351.934L736.215 350.523L737.242 348.133L739.773 346.125L741.612 345.862L740.394 348.85L743.331 352.651L744.167 352.89L746.842 350.069L749.063 346.029L747.94 341.343L750.854 340.172L753.385 339.574L754.985 340.865L756.465 342.778L756.012 343.782L757.85 346.053L758.495 345.025L758.519 344.164L760.788 344.069L765.54 345.599L768.023 349.113L771.581 351.504L779.342 362.309L780.465 361.76L784.859 365.537L785.336 368.143L784.095 369.936L782.256 376.151L782.518 378.972L782.351 384.064L780.99 386.79L782.232 386.072L782.948 385.068L783.856 379.187L785.145 379.713L787.103 381.65L787.868 384.184L787.987 381.602L786.244 378.566L785.408 375.219L788.369 371.155L788.894 371.25L789.587 374.669L792.047 374.741L792.309 373.522L791.282 371.657L790.471 368.143L794.315 367.043L806.351 370.055V384.16V434.34L806.494 677.206L806.184 845.078L800.811 847.42L794.626 851.03L785.002 855.405L780.584 857.174L773.468 858.561L763.032 862.601L757.588 863.557L746.245 864.083L738.794 863.366L733.087 861.717L730.221 863.127L727.714 862.577L723.415 864.92L715.869 871.136L714.031 871.949L710.353 872.737L702.401 877.136L699.392 879.838L695.954 881.918L687.046 883.376L683.918 884.619L681.53 886.579L679.357 889.353L676.658 897.194L675.441 902.334L672.957 904.079L670.617 906.541L669.733 908.31L669.709 909.147L668.563 910.414L664.671 913.068L660.205 912.733L659.537 912.996L657.984 915.1L656.79 916.008L655.023 916.582L653.28 912.47L651.131 911.562L646.641 913.092L643.656 912.661L640.122 912.805L639.644 913.283L635.943 913.665L633.889 913.259L632.433 913.833L631.501 914.909L631.215 916.486L627.776 916.845L626.773 916.51L627.322 915.339L626.558 912.637L625.054 910.701L624.528 910.51L622.523 910.868L621.09 912.231L618.988 912.829L612.302 910.414L610.702 910.295L607.454 910.223L600.075 911.514H595.18L593.341 912.494L586.822 913.403L583.622 915.172L579.371 914.096L572.948 913.761L567.981 915.291L566.07 917.395L562.894 919.092L561.533 920.646L559.384 924.423L559.026 926.336L555.348 929.946L552.315 931.739L548.948 930.543L544.602 930.137L540.137 933.173L539.611 933.962L540.519 934.966L539.611 935.994L537.51 937.285L533.331 938.648L531.802 940.226L531.014 942.305L528.268 944.361L523.086 947.135L516.758 948.282L516.662 948.928L517.283 949.597L520.865 950.386L519.265 951.294L517.307 950.936L515.373 949.406L513.892 948.856L512.269 948.951L511.457 949.525L510.86 951.701L508.878 950.123L503.672 947.924L493.762 947.876L492.4 949.143L491.803 949.167L487.959 947.924L484.783 948.426L481.105 947.374L474.801 943.166L468.497 941.708L466.944 938.05L464.365 935.062L460.067 930.663L456.127 928.033L451.422 925.571L449.536 925.356L447.649 925.81L446.455 927.364L443.518 924.232L443.542 921.531L442.181 911.872L442.085 906.47L443.208 901.258L444.306 901.569L445.906 903.959L448.987 905.274L451.446 905.059L453.548 904.294L454.407 903.792L461.738 893.225L460.616 884.523L458.682 874.961L459.279 872.881L461.261 870.419L461.165 871.399L459.685 873.048L459.637 874.291L460.688 877.28L461.404 878.356L461.882 878.021L461.834 876.347L463.028 871.949L462.264 864.251L462.861 860.306L462.407 857.366L462.55 851.222L461.571 845.843L460.95 844.145L454.622 832.598L452.831 827.243L451.327 823.753L447.625 817.298L444.497 809.29L444.688 808.477L443.876 802.404L442.157 796.476L441.632 796.021L441.751 784.427L442.682 779L441.393 774.482L440.724 773.406L440.318 770.633L438.957 767.405L433.369 760.759L432.653 758.584L432.462 753.755L430.36 749.499L425.298 741.921L423.339 740.726L421.334 737.857L419.781 730.852L420.116 728.677L420.975 726.645L420.474 723.609L419.208 719.186L415.674 711.847L412.092 705.129L406.552 697.12L398.648 688.705L397.191 684.091L398.385 681.7L398.218 679.047L398.313 678.354L398.815 677.995L399.245 683.589L400.033 685.215L400.844 680.625L404.689 685.382L405.215 686.936L405.525 691.837L406.122 693.606L408.032 696.044L408.844 696.212L408.916 695.471L410.588 694.323L411.686 694.586L413.549 691.813L413.692 686.888L411.829 684.402L408.271 682.059L405.644 679.334L404.14 673.118L401.513 668.863L401.967 666.496L403.543 663.986L404.283 664.536L406.695 668.887L409.441 671.253L410.396 673.955L409.776 677.349L409.059 678.138L409.131 680.577L409.895 682.8L411.208 682.92L412.092 681.963L414.17 677.947L415.531 684.689L416.247 686.53L419.113 690.379L422.36 687.821L423.053 685.502L422.265 684.378L421.763 682.346L422.647 676.776L423.554 677.206ZM396.737 681.342L395.973 680.72L392.128 674.887L390.194 670.99L389 666.496L389.167 663.986L390.194 662.504L391.484 662.814L390.958 664.081L391.054 664.87L394.11 673.62L396.737 678.401L397.262 680.29L396.737 681.342ZM690.103 385.475L689.888 384.734L688.503 383.443L688.718 382.247L689.363 381.219L691.058 380.526L693.303 384.279L690.103 385.475ZM452.807 533.121L451.924 532.38L451.279 533.002L451.088 532.787L451.112 531.328L453.763 527.742L454.622 527.217L454.933 527.384L455.291 529.272L455.171 530.109L453.667 532.452L452.807 533.121ZM706.079 364.198L704.717 363.457L704.885 361.425L705.482 359.895L706.7 358.628L707.894 359.967L707.297 362.883L706.365 363.337L706.079 364.198Z" fill="white" fill-opacity="0.2"/>
    <path d="M1350 1027.91L1304.03 1004.73L1301.69 1004.53L1303.79 1000.9L1304.06 998.581L1301.67 993.705L1300.02 991.601L1298.68 981.034L1295.87 979.241L1291.52 977.376L1289.3 978.237L1285.65 977.544L1283.23 977.95L1280.82 980.962L1278.48 981.178L1274.14 982.708L1270.65 982.468L1264.87 980.652L1262.55 978.835L1259.88 978.428L1258.26 978.643L1257.35 979.6L1254.63 980.771L1249.25 980.293L1241.85 978.882L1240.04 978.117L1236.98 975.177L1235.09 973.695L1234.45 973.623L1232.49 974.053L1230.22 975.296L1227.95 975.081L1227.07 974.364H1223.89L1220.64 975.201L1220.17 975.775L1219.26 979.074L1219.67 982.325L1215.08 983.616L1214.08 983.353L1210.88 981.488L1205.43 975.105L1204.1 972.045L1203.5 971.424L1202.02 970.946L1199.39 968.603L1197.39 965.829L1192.94 963.463L1188.96 960.427L1187.12 959.757L1186.04 959.996L1184.44 958.801L1184.01 958.132L1184.61 956.315L1183.61 954.761L1181.51 954.235L1179.57 953.04L1178.38 950.41L1177.68 946.465L1178.31 943.333L1178.33 941.349L1177.99 940.847L1172.48 937.835L1168.61 937.572L1165.55 936.329L1165.2 935.468L1163.57 934.392L1162.09 934.894L1161.64 935.54L1160.8 939.245L1159.63 940.728L1157.43 940.297L1156.55 939.269L1156.62 938.648L1155.24 934.942L1152.99 932.862L1152.87 928.368L1149.27 922.296L1147.19 920.861L1144.2 919.499L1140.15 920.335L1136.3 919.331L1134.01 920.216L1132.55 922.224L1131.29 922.893L1130.83 922.272L1127.94 920.503L1123.69 918.518L1119.23 918.184L1118.44 917.969L1117.22 916.773L1117.34 764.489L1120.42 764.465L1172.48 764.489H1212.86H1245.77H1323.45L1325.43 763.509L1328.46 759.707L1336.75 752.655L1339.61 751.866L1340.28 751.986L1340.69 752.846L1342.96 753.516L1350.93 752.822L1354.66 751.388L1358.17 750.958L1358.89 751.125L1360.87 753.181L1362.66 754.4L1366.98 754.52L1370.9 753.707L1377.44 756.695L1384.06 762.409L1384.37 766.903L1385.42 769.246L1385.99 769.509L1387.26 769.198L1388.5 767.883L1390.84 763.102L1395.3 761.118L1396.26 762.959L1397.86 763.724L1402.82 761.333L1403.66 756.528L1401.32 751.221L1403.83 749.236L1406.74 747.802L1411.9 746.105L1412.95 745.387L1413.48 744.049L1414.96 742.806L1416.1 742.973L1417.8 744.718L1422.05 745.65L1426.9 745.148L1431.17 745.435L1433.15 742.806L1436.62 742.16L1439.46 741.06L1441.39 739.483L1443.25 741.18L1443.61 743.116L1442.78 749.499L1443.25 752.846L1444.45 754.472L1443.97 760.401L1439.89 765.756L1437.02 774.171L1437.74 776.251L1434.85 792.722L1433.58 797.551L1428.76 811.13L1428.42 819.139L1428.83 820.597L1429.74 820.717L1430.19 822.558L1427.54 831.451L1427.04 834.965L1424.32 843.978L1422.02 848.664L1416.77 855.31L1415.58 858.418L1416.34 862.458L1416.03 866.737L1411.52 870.562L1409.58 872.809L1405.6 875.296L1405.38 876.61L1406.02 877.997L1401.06 879.742L1397.4 881.631L1393.7 887.201L1391.24 893.297L1390.67 893.775L1389.36 893.871L1388.14 894.851L1387.88 896.262L1388.97 897.242L1388.14 900.565L1385.18 904.533L1384.06 912.9L1383.43 915.148L1382.5 915.865L1381 915.698L1378.97 916.51L1380.4 916.893L1381.45 917.873L1379.35 921.292L1377.01 923.037L1374.69 926.455L1372.26 933.556L1373.31 934.847L1372.02 940.728L1370.35 941.78L1369.82 943.596L1370.73 946.25L1372.55 948.139L1372.14 950.242L1371.45 950.84L1370.59 949.908L1370.9 949.262L1370.54 947.804L1369.85 947.732L1368.2 948.76L1368.01 949.812L1368.68 951.438L1367.22 953.063L1364.45 954.593L1363.04 957.247L1362.9 958.586L1360.99 964.132L1359.67 966.26L1354.66 977.257L1354.01 982.731L1353.97 989.664L1352.46 991.625L1351.08 999.323L1349.6 1004.7L1347.95 1008.86L1348.07 1013.57L1350.65 1016.56L1350.98 1018.81L1350.96 1019.88L1350.19 1019.64L1349.09 1020.46L1349.14 1024.23L1350 1027.91ZM1327.24 974.555L1327.44 973.599L1326.86 967.025L1328.34 961.096L1329.59 959.351L1331.54 958.418L1333.96 958.753L1335.1 957.725L1333.5 956.697L1331.11 955.837L1329.75 954.211L1326.72 952.49L1319.91 957.51L1318.67 963.63L1318.62 968.053L1319.32 969.941L1322.78 975.081L1323.4 975.607L1326 976.492L1327.24 974.555Z" fill="#978D72"/>
    <path d="M995.576 922.248L992.997 926.408L990.895 927.34L988.675 931.141L986 932.814L984.4 935.994L982.561 941.564L983.206 941.875L984.352 941.732L987.815 939.293L988.173 940.943L987.767 947.134L986.525 947.66L985.833 946.346L983.66 943.931L982.108 942.975L980.484 943.214L979.337 945.915L978.406 945.891L977.427 944.003L974.012 939.532L970.168 935.564L968.138 933.938L967.302 933.675L964.627 934.607L965.654 931.763L967.135 929.635L967.254 931.595L970.645 935.229L972.006 936.161L974.585 935.325L971.959 934.273L971.624 933.293L971.481 932.48L971.911 931.523L970.765 925.069L968.782 919.785L968.472 916.247L966.729 913.546L962.574 908.86L957.583 904.796L958.299 901.808L958.036 899.656L956.747 895.975L954.12 890.548L951.159 889.4L946.359 890.165L944.305 891.337L942.729 889.568L942.753 888.779L940.843 883.687L937.691 876.515L939.768 876.658L940.795 877.614L941.153 879.168L942.92 876.754L943.446 875.176L942.92 872.45L941.082 869.845L939.458 868.434L938.718 868.315L934.61 869.606L932.939 871.207L931.96 871.016L932.007 868.53L932.748 866.832L934.061 867.358L934.491 866.641L931.267 862.147L928.664 860.617L927.04 859.158L927.327 858.035L925.56 857.485L924.915 858.011L924.533 859.565L922.408 860.904L914.145 860.33L913.357 860.139L911.542 858.178L909.154 857.318L905.5 853.851L904.259 853.182L899.053 852.56L896.569 853.062L894.635 854.855L892.39 855.644L890.767 855.764L888.976 855.31L884.605 850.887L877.919 846.034L867.436 840.607L861.824 838.503L860.964 838.599L858.314 840.75L853.944 842.448L852.63 842.615L838.875 841.587L835.914 841.683L830.398 842.113L827.867 842.759L812.154 844.097L806.184 845.078L806.327 677.302L829.514 677.134L864.069 677.158L1039.49 677.134H1117.27L1117.34 764.513L1117.22 916.797L1116.55 915.913L1116.46 1045.96L1113.42 1045.65L1111.37 1046.27L1109.48 1046.2L1105.11 1043.86L1100.6 1039.32L1097.54 1033.13L1094.51 1028.51L1092.65 1027.2L1091.19 1027.27L1086.53 1021.01L1084.91 1017.75L1085.72 1016.08L1085.65 1014.77L1084.43 1011.73L1084.91 1008.74L1086.75 1007.21L1087.75 1004.63L1087.73 1000.3L1086.77 996.884L1082.24 985.815L1075.07 976.253L1070.34 971.161L1067.57 968.913L1068.84 969.32L1075.91 975.512L1080.59 981.942L1082.57 986.03L1082.28 983.807L1081.09 980.436L1080.11 978.978L1077.03 975.416L1068 966.762L1067.96 963.941L1069.56 963.295L1071.51 964.993L1071.28 968.985L1071.68 969.535L1074.12 969.272L1074.79 966.499L1075.1 962.267L1074.67 959.231L1070.94 957.39L1068.94 959.375L1067.5 959.805L1065.97 959.733L1064.66 960.307L1064.14 961.598L1064.4 962.435L1065.88 962.913L1066.38 963.534L1065.21 965.04L1058.21 964.443L1056.37 965.208L1054.82 967.096L1053.41 968.077L1044.05 968.579L1041.93 966.977L1043.48 964.228L1046.92 962.506L1050.88 958.227L1051.62 954.043L1051.31 952.944L1051.57 950.936L1052.84 948.162L1051.98 943.046L1052.58 940.225L1052.36 938.839L1050.79 936.114L1046.63 931.021L1045.2 925.858L1041.9 920.24L1041.28 920.383L1039.71 924.065L1040.4 925.451L1040.02 926.766L1037.56 929.3L1036.65 932.432L1036.29 938.265L1033.02 948.927L1033 951.557L1031.09 953.111L1027.41 951.438L1025.52 950.96L1024.52 951.151L1019.65 952.992L1018.55 954.785L1017.93 955.191L1014.32 954.641L1012.32 956.41L1010.84 956.96L1010 956.554L1009.26 955.311L1010.21 953.757L1011.98 952.011L1012.6 950.505L1013.03 946.059L1014.25 944.266L1016.42 945.126L1018.64 944.529L1020.94 944.385L1021.39 945.102L1023.61 946.106L1024.9 945.413L1025.43 944.098L1026.57 936.592L1026.12 930.735L1026.43 924.925L1025.35 920.981L1025.74 920.455H1027L1027.77 918.973L1029.08 914.622L1029.29 912.374L1033.83 906.565L1036.74 903.696L1037.84 903.386L1038.27 902.262L1037.44 898.604L1034.81 893.56L1035.6 891.217L1037.08 890.165L1038.46 889.615L1040.14 889.568L1040.85 888.994L1040.66 887.416L1039.87 885.91L1038.46 885.312L1036.96 878.475L1035.6 875.439L1034.88 871.733L1033.5 870.681L1033.28 875.678L1033.88 876.013L1034.48 877.064L1034.64 880.34L1033.78 884.786L1032.42 884.858L1029.13 885.91L1026.36 888.922L1023.68 894.253L1023.54 896.811L1023.06 898.246L1019.15 905.585L1017.38 907.067L1014.23 907.187L1012.39 906.063L1010.69 908.597L1011.17 908.932L1010.17 909.984L1002.81 913.881L998.489 917.275L997.009 918.805L996.865 919.809L995.576 922.248ZM1037.2 970.491L1041.14 971.567L1042.4 973.288L1042.43 974.962L1040.54 976.659L1037.46 975.153L1033.31 974.842L1029.65 976.563L1029.17 977.233L1029.51 979.432L1028.77 980.173L1025.38 981.847L1022.85 979.265L1019.43 978.619L1018.48 978.93L1018.19 980.102L1017.45 980.532L1014.37 980.245L1010.95 980.771L1006.08 980.914L1005.25 979.528L1001.57 976.468L1001.45 975.344L1002.67 971.758L1012.17 968.937L1014.2 968.913L1016.64 968.34L1021.75 966.068L1027.17 966.523L1028.7 967.981L1028.67 970.563L1029.03 971.041L1031.52 971.376L1034.07 972.834L1035.6 972.954L1037.2 970.491Z" fill="white" fill-opacity="0.2"/>
    <path d="M1350 580.05V580.48L1351.6 582.01L1350.26 577.396L1348.57 573.906L1348.59 572.591L1349.6 569.937L1350.62 568.599L1351.77 568.288L1352.68 568.67L1354.66 571.73L1355.83 575.053L1358.98 576.344L1363.09 579.165L1366.03 580.504L1364.52 576.942L1364.5 574.838L1365.21 573.38L1367.1 573.715L1368.94 576.464L1368.17 578.233L1368.37 579.596L1371.88 584.592L1370.23 595.756L1371.69 598.769L1371.37 602.785L1373.09 606.275L1375.2 607.423L1377.13 607.71L1377.87 609.407L1379.64 610.746L1380.88 614.332L1382.72 615.336H1383.58L1384.8 616.197L1387.54 619.591L1389.31 620.117L1390.69 621.217L1390.29 621.862L1390.46 622.651L1391.17 622.938L1392.44 621.695L1392.48 620.165L1393.11 619.567L1394.25 619.902L1396.95 623.01L1400.72 626.381L1402.71 632.286L1405.86 637.449L1409.63 640.342L1413.28 641.777L1414.57 643.259L1415.34 645.1L1415.6 648.518L1419.85 655.571L1423.41 656.646L1425.96 656.814L1426.97 661.021L1426.66 663.555L1425.61 664.631L1425.75 667.978L1426.32 669.58L1427.18 670.393L1427.97 670.608L1429.36 674.003L1433.08 675.7L1433.18 676.393L1431.93 679.095L1430.24 686.027L1430.72 687.892L1431.36 696.427L1432.08 698.172L1432.44 708.38L1430.84 708.882L1429.26 711.105L1430.05 715.074L1432.89 717.273L1434.99 719.903L1436.62 725.473L1438.81 728.557L1439.58 730.637L1439 734.534L1440.29 737.785L1441.49 739.459L1439.55 741.036L1436.71 742.136L1433.25 742.782L1431.27 745.411L1426.99 745.124L1422.14 745.626L1417.89 744.694L1416.2 742.949L1415.05 742.782L1413.57 744.025L1413.05 745.363L1411.99 746.081L1406.84 747.778L1403.92 749.212L1401.42 751.197L1403.76 756.504L1402.92 761.309L1397.95 763.7L1396.35 762.935L1395.4 761.094L1390.93 763.078L1388.59 767.859L1387.35 769.174L1386.08 769.485L1385.51 769.222L1384.46 766.879L1384.15 762.385L1377.54 756.671L1370.99 753.683L1367.08 754.496L1362.75 754.376L1360.96 753.157L1358.98 751.101L1358.26 750.934L1354.75 751.364L1351.03 752.798L1343.05 753.492L1340.78 752.822L1340.38 751.962L1339.71 751.842L1336.84 752.631L1328.56 759.683L1325.53 763.485L1323.54 764.465H1245.86H1212.86H1172.5L1120.44 764.441L1117.34 764.513L1117.29 677.158H1039.51V415.262L1044.55 419.374L1047.04 420.33L1052.12 421.55L1056.09 421.311L1057.33 422.219L1061.36 423.916L1065.71 424.538L1069.1 429.248L1069.65 432.738L1070.96 435.272L1072.21 436.491L1074.19 437.185L1076.79 437.495L1079.35 439.193L1081.45 441.32L1086.58 442.803L1088.35 443.854L1090.86 446.102L1091.88 446.532L1094.82 446.699L1101.67 445.456L1105.23 444.141L1107.45 442.946L1111.04 440.173L1112.99 439.48L1114.35 436.993L1115.81 431.351L1116.19 427.311L1122.35 419.302L1124.74 413.9L1125.51 409.979L1128.4 402.377L1127.73 397.858L1129.28 387.961L1133.79 377.609L1134.6 374.334L1132.05 367.306L1130.88 359.775L1131.26 357.576L1132.74 353.775L1132.93 350.81L1132.36 348.73L1129.76 345.623L1129.54 342.419L1131.43 334.578L1135.23 327.191L1134.94 326.019L1133.75 324.68L1132.57 320.09L1132.79 319.325L1133.12 318.728L1135.77 317.054L1136.78 315.835L1138.04 312.321L1139.6 312.799L1140.43 314.233L1140.46 316.361L1141.55 318.034L1141.77 316.911L1140.31 312.655L1139.17 311.819L1136.01 307.085L1136.78 306.464L1136.28 306.081L1134.58 305.962L1134.37 307.516L1135.18 308.615L1133.67 309.093L1132.77 308.687L1132.81 308.089L1135.25 302.806L1137.52 299.674L1137.11 298.766L1138.28 295.419L1139.4 293.745L1140.53 293.243L1141.17 296.399L1143.94 295.849L1144.16 295.204L1142.06 293.148L1141.96 292.072L1142.53 289.012L1146.52 277.537L1147.45 271.68L1146.93 267.066L1147.17 266.42L1148.12 265.727L1152.23 265.01L1153.68 263.073L1154.85 260.133L1156.79 260.061L1159.23 261.209L1158.41 262.452L1156.69 264.03L1156.5 266.444L1158.15 264.34L1159.08 264.412L1162.59 267.4L1163.71 269.863L1165.72 278.039L1165.05 281.194L1165.77 286.573L1165.58 289.657L1168.39 292.144L1170.19 292.287L1171.88 291.522L1172.62 291.809L1174.36 293.721L1171.86 297.762L1171.33 299.985L1171.21 302.878L1172.55 303.26L1173.36 303.045L1175.65 304.169L1176.37 304.958L1176.47 307.731L1177.61 308.926L1178.59 309.022L1180.36 310.36L1178.93 313.683L1178.59 316.48L1179.71 317.054L1182.27 316.767L1182.53 317.293L1182.13 323.103L1182.72 328.553L1182.91 329.51L1183.94 330.49L1184.61 331.924L1184.39 334.41L1182.94 340.53L1184.78 345.312L1186.97 347.631L1187.31 351.934L1188.31 355.496L1189.48 358.006L1190.36 358.962L1192.23 359.966L1195.45 359.99L1199.13 357.122L1206.44 353.775L1207.51 351.36L1208.54 351.599L1210.16 354.038L1209.85 356.572L1211.09 359.943L1212.72 361.879L1216.63 363.385L1218.4 363.505L1220.02 367.115L1226.42 370.007L1229.27 372.23L1229.1 373.808L1227.14 377.275L1227.24 378.853L1228.26 380.55L1228.6 382.534L1227.55 385.618L1229 388.511L1230.41 393.316V398.169L1231.72 399.484L1233.09 402.663L1232.66 408.162L1231.68 409.525L1231.51 412.298L1231.75 413.087L1233.11 413.947L1241.97 425.016L1242.83 424.299L1245.24 423.893L1245.86 424.658L1243.86 428.459L1243.98 429.295L1245.81 432.451L1247.84 437.208L1249.23 442.301L1249.71 446.054L1249.23 448.636L1249.61 451.409L1249.44 453.202L1247.06 458.27L1247.25 460.876L1252.5 467.761L1255.65 468.956L1255.46 471.992L1254.29 474.718L1253.96 477.61L1254.2 478.519L1255.7 480.527L1257.97 482.296L1258.61 483.539L1261.65 485.523L1263.96 486.623L1266.8 486.695L1269.98 489.874L1271.75 489.946L1274.83 490.95L1276.57 492.6L1279.53 493.221L1284.17 492.863L1284.55 492.05L1283.38 490.018L1284.86 491.715L1287.37 496.234L1288.39 501.493L1289.01 502.76L1290.33 504.171L1291.74 504.505L1292.93 504.218L1292.52 501.995L1292.71 501.039L1294.29 501.063L1295.05 501.876L1295.36 504.912L1296.61 506.083L1298.16 506.752L1301.41 506.609L1304.61 507.541L1306.66 510.028L1305.82 510.362L1306.04 511.103L1307.57 512.992L1309.62 514.666L1310.98 514.068L1311.08 512.442L1310.27 511.701L1310.62 510.745L1312.42 511.414L1316.33 514.929L1318.82 515.383L1319.7 516.602L1321.35 521.24L1322.33 521.503L1323.11 523.702L1321.66 523.344L1320.41 522.077L1319.36 521.575L1318.1 522.1L1316.19 524.467L1317.79 528.77L1320.92 532.046L1322.78 533.337L1325.55 534.317L1328.99 536.994L1330.4 538.787L1330.13 540.843L1331.04 544.286L1332.33 545.385L1333.33 548.685L1334.81 551.29L1336.3 552.701L1335.96 557.984L1338.32 566.447L1340.12 570.798L1341.76 573.165L1342.89 574.073L1342.96 576.918L1342.17 578.113L1343.91 577.229L1345.3 576.081L1345.94 575.006L1350 580.05ZM1430.48 671.325L1429.36 671.086L1428.3 669.675L1426.9 664.536L1428.28 661.141L1430.02 658.248L1430 655.786L1429.64 655.164L1430.72 652.917L1433.42 650.741L1434.61 648.399L1434.82 647.132L1434.56 646.151L1433.01 643.617L1432.51 643.33L1433.49 641.514L1435.71 640.055L1435.92 645.888L1436.52 647.203L1437.76 648.016L1438.02 649.02L1431.7 663.938L1430.55 667.691L1430.93 670.01L1430.48 671.325ZM1069.27 420.809L1069.01 419.231L1069.7 416.481L1071.18 414.426L1073.35 412.776L1077.84 412.226L1079.25 411.461L1084.24 412.274L1084.39 413.852L1083.26 414.378L1081.57 414.736L1080.44 413.828L1078.06 414.784L1078.44 415.621L1076.84 418.274L1073.95 419.374L1070.2 420.067L1069.27 420.809ZM1382.41 614.188L1381 612.874L1380 610.65L1378.25 609.072L1377.25 606.825L1377.01 604.865L1378.16 604.602L1381.79 606.897L1382.29 607.734L1383.96 610.937L1384.27 613.137L1383.58 613.973L1382.41 614.188ZM1254.41 467.713L1252.62 467.02L1252.12 464.534L1250.97 462.98L1249.78 462.406L1249.13 461.211L1250.21 460.948L1253.89 462.669L1256.03 465.777L1255.27 467.259L1254.41 467.713ZM1438.91 727.266L1438.45 726.262L1438.6 723.776L1439.6 718.086L1440.6 717.847L1442.39 718.158L1440.67 723.848L1440.13 727.123L1438.91 727.266ZM1439.39 716.556L1437.67 711.727V707.806L1439.89 706.587L1440.46 707.017L1439.12 712.086L1439.39 716.556ZM1147.95 261.663L1146.33 260.348L1146.21 258.698L1147.76 257.67L1148.84 257.455L1150.1 259.368L1149.94 260.348L1148.69 260.659L1147.95 261.663ZM1150.46 248.419L1148.67 247.654L1148.12 246.793L1149.12 245.263L1150.56 245L1151.42 245.406L1152.01 246.458L1150.46 248.419ZM1076.53 431.184L1075.79 429.63L1078.44 427.144L1079.78 428.1L1080.21 430.084L1077.15 430.013L1076.53 431.184Z" fill="white" fill-opacity="0.2"/>
    <path d="M1039.49 560.411V677.158H829.514L806.327 677.326L806.215 487.854H806.933L818.598 483.196C822.559 481.68 831.712 477.609 835.784 476.681C842.981 475.734 849.808 476.284 857.739 476.681C859.175 476.752 860.651 476.826 862.176 476.895C870.138 477.253 879.211 477.789 882.753 478.013V481.927C882.753 482.639 882.718 484.231 882.672 486.327C882.517 493.451 882.602 506.029 883.121 510.176C883.721 514.979 890.11 516.339 894.692 517.203C895.231 517.304 896.191 517.439 896.65 517.533C899.866 517.824 906.247 518.097 912.751 517.903C916.395 517.795 919.725 517.717 922.258 517.717C924.157 517.717 926.21 517.657 927.873 517.649C934.453 517.384 939.859 517.717 951.405 519.351C968.007 521.699 981.548 530.223 987.894 533.765C988.304 533.994 988.671 534.198 988.99 534.375C994.246 537.283 1012.82 546.5 1025.11 551.82C1034.26 555.294 1038.38 558.842 1039.49 560.411Z" fill="white" fill-opacity="0.4"/>
    <path d="M1039.49 464.194V560.326C1036.91 557.193 1029.23 553.703 1018.7 548.922C1008.54 544.302 995.714 538.475 982.272 530.599C958.747 516.815 935.159 517.383 916.289 517.837C911.407 517.954 906.841 518.064 902.673 517.916C883.801 517.245 883.352 512.359 883.09 509.505C883.071 509.293 883.052 509.091 883.027 508.904C882.739 506.741 882.426 487.335 882.306 477.903V436.538C882.306 426.254 883.132 425.809 885.676 424.438C885.919 424.307 886.177 424.168 886.452 424.011C889.606 422.209 895.103 420.316 906.999 417.883C918.895 415.45 925.94 414.976 932.957 415.739C935.741 416.042 938.463 416.072 941.62 416.107C944.56 416.139 947.877 416.176 951.969 416.441C957.938 416.827 963.261 418.998 968.975 421.327C971.188 422.229 973.46 423.155 975.851 424.011C981.071 425.879 988.971 431.098 997.305 436.603C1002.64 440.126 1008.15 443.767 1013.25 446.721C1023.51 452.666 1034.84 460.717 1039.49 464.194Z" fill="white"/>
    <path d="M806.215 488.332L806.184 370.151L808.5 370.916L810.983 373.067L810.697 377.944L811.127 378.47L812.822 376.366L811.843 369.888L812.13 369.29L814.804 370.031L818.147 371.729L823.497 377.705L823.712 378.996L825.144 378.446L823.377 376.127L822.422 374.143L822.088 372.159L822.661 371.035L822.947 369.242L826.935 369.936L828.583 369.386L830.661 367.378L826.028 368.836L823.688 367.33L821.825 364.891L821.395 363.648L822.35 363.17L824.404 362.955L826.1 361.76L826.195 361.186L825.434 361.442C825.554 361.378 825.668 361.312 825.777 361.242C828.237 359.66 830.346 359.045 841.771 356.145C853.195 353.245 858.732 351.663 872.353 345.336C883.251 340.274 888.553 335.2 889.842 333.296C892.625 333.97 899.544 335.757 904.957 337.514C911.724 339.712 916.03 341.733 920.6 344.369C924.467 346.6 928.711 347.321 935.037 348.395C936.187 348.59 937.406 348.797 938.704 349.027C939.988 349.254 941.062 349.451 942.003 349.624C947.248 350.585 948.371 350.79 958.653 351.312C967.901 351.781 976.926 353.831 980.795 354.935L977.833 358.771L975.732 362.405L975.684 364.341L972.436 366.541L971.385 366.517L972.985 371.155L974.084 372.804L975.803 374.263L979.123 375.458L983.827 378.47L986.239 380.67L993.188 384.279L993.928 384.925L994.549 388.2L995.982 389.874L1002.43 392.958L1005.08 395.157L1007.49 397.787L1014.35 398.074L1017.09 399.508L1023.11 403.787L1026.19 405.102L1027.62 405.054L1030.3 405.939L1032.66 407.11L1035.81 412.131L1039.49 415.262V464.057C1029.45 457.199 1006.52 442.042 984.383 429.003C962.443 416.08 950.49 416.092 940.981 416.102C937.897 416.105 935.071 416.108 932.244 415.67C920.702 413.879 890.911 421.094 886.732 423.88C882.743 426.54 882.485 427.153 882.493 436.385C882.493 436.824 882.494 437.281 882.494 437.759V477.957H876.325C871.748 477.559 859.489 476.684 847.071 476.365C835.85 476.078 833.885 476.934 827.568 479.686C825.146 480.741 822.086 482.074 817.619 483.728C811.953 485.827 808.385 487.311 806.215 488.332Z" fill="white" fill-opacity="0.35"/>
    <path d="M1013.51 394.679L1014.99 395.778L1015.32 395.755L1015.99 394.057L1015.01 390.878L1013.84 389.419L1012.36 390.878L1011.89 392.264L1013.51 394.679Z" fill="white" fill-opacity="0.35"/>
    <path d="M1000.59 390.519L1001.26 390.854L1002.88 390.543L1003.34 387.602L1002.6 387.268L1001.12 388.272L1000.59 390.519Z" fill="white" fill-opacity="0.35"/>
    <path d="M890.07 333.38C897.294 335.281 912.108 339.693 915.924 341.933C916.289 342.148 917.634 342.798 917.992 343.014C922.309 345.611 926.907 348.224 946.677 350.471C953.086 351.228 957.296 351.219 961.488 351.638C970.716 352.56 975.083 353.342 980.749 354.963L981.248 354.349L984.256 352.316L984.973 350.93L985.689 346.125L987.337 343.591L988.149 340.817L988.292 338.833L987.17 340.1L985.737 340.459L984.734 339.909L983.612 336.586L984.089 333.598L985.236 332.641L985.928 331.087L984.877 330.275L984.806 329.534L985.737 327.932L987.456 326.521L990.155 325.469L991.42 325.971L991.779 326.999L992.829 326.928L995.05 324.991L996.077 322.218L996.889 322.027L997.295 322.433L997.199 327.143L999.301 326.426L999.54 327.262L1001.35 324.537L1001.78 322.027L1001.81 319.469L1000.21 316.504L1000.47 314.735L1003.74 315.955L1004.34 312.751L1006.97 308.52L1008.49 306.751L1013.01 303.595L1010.36 300.009L1007.73 298.67L1005.63 299.196L1005.49 299.698L1007.18 300.32L1007.25 300.894L1006.25 301.611L1005.08 301.635L1003.24 298.957L1001.62 294.391L1002.21 292.407L999.325 292.933L994.931 295.873L992.232 298.551L992.352 299.196L993.928 299.866L996.387 299.555L997.08 300.463L995.265 305.077L993.88 306.153L992.089 306.32L991.731 305.699L989.773 305.914L988.698 306.607L987.934 305.89L987.218 304.121L989.295 301.109L988.841 300.32L986.931 301.204L986.047 299.866L988.244 297.092L984.639 298.144L982.513 299.889L982.131 300.965L980.818 301.539L979.6 300.391L979.098 299.148L979.218 298.312L982.203 295.252L981.104 293.961L985.522 290.207L986.31 288.94L985.427 287.912L984.471 287.888L984.567 289.729L981.271 292.359L979.504 292.311L977.116 292.957L976.567 294.941L976.83 295.586L978.31 294.702L978.907 295.036L976.925 296.638L973.081 297.092L971.576 296.423L970.239 296.997L968.639 298.598L967.588 301.324L967.731 301.826L966.729 301.372L963.911 301.109L961.666 299.244L958.394 297.547L955.815 293.961L953.26 294.104L951.35 295.562L949.201 295.825L946.741 295.61L945.404 295.06L941.177 295.682L940.675 295.275L940.317 293.148L940.628 292.646L937.117 289.968L936.52 290.064L935.756 291.068L934.323 291.737L932.461 290.948L931.649 290.183L931.529 289.538L931.935 288.916L933.726 287.888L933.44 287.076L930.622 286.597L929.667 287.888L927.159 289.251L925.894 289.657L924.127 289.61L920.449 288.056L919.136 286.143H917.846L916.389 287.123L914.622 286.597L913.667 285.832L909.775 278.78L907.745 276.604L906.623 276.509L903.972 280.477L902.778 281.41L901.369 281.099L897.262 275.839L896.999 274.692L892.772 271.154L891.101 272.038L888.641 271.202L887.733 271.417L888.927 273.568L890.05 277.059L889.262 278.493L888.259 278.397L886.301 273.76L883.554 271.058L880.689 272.373L877.847 275.768L878.014 276.055L880.45 275.839L883.172 277.298L883.674 279.019L886.181 281.529L886.683 281.577L889.883 279.856L893.584 279.234L895.542 279.593L896.617 280.262L897.93 282.127L901.847 285.043L900.39 287.339L900.199 294.917L900.485 296.136L902.324 297.499L903.327 297.618L901.608 297.762L898.885 296.758L895.423 298.001L894.921 298.933L895.447 302.017L895.256 302.639L893.847 304.073L894.73 302.161L893.274 299.387L891.695 299.356C891.841 301.121 891.908 303.49 891.873 304.62C891.818 306.376 891.502 312.155 891.118 313.362C890.734 314.568 889.923 317.678 889.923 321.243C889.923 322.389 889.951 323.679 889.923 325.373C889.864 328.949 889.892 333.333 890.07 333.38Z" fill="white" fill-opacity="0.45"/>
    <path d="M1011.62 351.049L1011.22 351.719L1010.26 352.603L1006.8 352.077L1006.06 351.432L1006.01 348.97L1007.61 345.407L1008.97 344.523L1011.53 341.893L1011.34 340.913L1010.57 340.363L1009.71 340.602L1009.23 341.248L1009.5 342.156L1008.64 343.065L1006.18 342.634L1005.22 339.861L1006.23 339.168L1006.42 337.949L1005.29 337.877L1003.12 339.694L1003.86 341.367L1003.03 342.013L999.516 342.682L998.775 343.949L998.178 346.172L998.37 348.133L997.462 352.699L1004.05 354.349L1007.13 353.894L1010.72 354.851L1012.08 354.325L1012.75 350.978L1011.62 351.049Z" fill="white" fill-opacity="0.45"/>
    <path d="M1000.81 278.469L1000.71 279.688L1001.64 279.593L1002.21 279.067L1006.44 273.138L1007.71 268.261L1006.54 268.883L1004.32 273.377L1000.81 278.469Z" fill="white" fill-opacity="0.45"/>
    <path d="M897.739 273.425L898.647 275.935L899.411 276.748L900.151 274.955L900.199 272.373L898.957 268.285L896.975 269.05L897.739 273.425Z" fill="white" fill-opacity="0.45"/>
    <path d="M992.949 342.276L992.877 343.232L993.88 342.849L994.74 341.463L995.098 339.766L993.952 338.212L992.853 338.02L990.585 339.813L990.346 342.037L990.752 342.539H991.85L991.444 341.272L992.113 340.817L992.949 342.276Z" fill="white" fill-opacity="0.45"/>
    <path d="M992.399 284.637V285.856L997.319 283.274L999.922 281.29L1000.16 279.975L996.722 282.653L994.764 282.748L992.399 284.637Z" fill="white" fill-opacity="0.45"/>
    <path d="M825.773 361.336C826.674 360.792 827.615 360.351 828.337 359.918C829.448 359.457 833.712 358.263 839.405 356.795C847.332 354.75 857.5 351.979 863.053 349.746C873.992 345.559 889.704 336.161 890.015 333.258C890.114 332.339 890.067 330.849 890.009 329.021C889.885 325.073 889.711 319.549 890.845 314.799C892.14 309.373 891.96 302.386 891.694 299.355L889.739 299.316L885.56 302.184L882.17 301.109L870.803 301.874L869.346 301.659L866.958 299.937L863.567 299.77L860.988 298.096L858.672 297.977L858.003 298.957L858.719 300.368L858.982 302.639L858.743 303.475L855.09 303.356L854.087 303.858L853.275 305.747L856.857 308.161L855.376 310.05V310.91L852.081 305.34L848.403 304.169L847.138 304.695L847.926 305.292L847.735 307.396L847.042 309.093L847.782 311.891L849.979 312.536L847.687 312.703L845.299 309.978L841.287 311.771L841.024 312.656L841.263 316.17L840.594 317.628L838.923 318.823L837.944 319.039L837.18 318.68L836.821 318.011L835.747 318.489L835.317 319.66L835.078 324.346L835.293 324.92L836.177 325.111L837.06 325.852L838.684 328.075L838.947 329.055L836.344 331.805L833.168 333.956L830.66 334.41L829.753 333.885L829.514 332.211L827.675 334.124L826.457 338.929L826.601 340.148L825.192 346.794L818.959 350.715L817.359 352.842L815.807 355.807L815.497 357.934L818.004 360.325L820.201 361.592L823.305 362.166L825.773 361.336Z" fill="#75858D"/>
    <path d="M854.469 290.303L857 292.407L861.394 289.108L864.594 287.052L865.43 286.932L872.044 279.975L871.829 277.991L868.964 274.214L865.167 272.684L863.448 274.047L863.137 275.361L864.021 277.585L863.901 278.254L862.564 276.342L862.039 274.549L861.251 274.62L858.218 276.963L855.496 275.792L854.087 277.107L850.457 277.967L847.042 276.891L845.967 275.146L842.362 271.991L841.812 272.421L841.621 274.357L843.006 279.497L844.941 284.589L849.717 288.343L854.469 290.303Z" fill="#75858D"/>
    <path d="M840.618 288.104L844.917 289.753L848.069 289.371L848.666 288.056L846.732 286.311L844.893 285.832L841.072 276.27L838.78 276.748L836.654 280.453L837.084 281.577L837.156 285.235L836.201 286.167L835.221 286.119L834.027 285.402L832.595 288.008L832.786 288.701L833.192 289.347L834.624 289.634L840.618 288.104Z" fill="#75858D"/>
</svg>
