<svg width="179" height="65" viewBox="0 0 179 65" fill="none" xmlns="http://www.w3.org/2000/svg">
<g clip-path="url(#clip0_777_7168)">
<path d="M154.303 56.7483C153.796 55.385 153.289 54.0021 152.782 52.6388C152.665 52.3077 152.295 52.1713 151.983 52.3466C150.423 53.1841 148.668 53.5931 146.601 53.5931C145.899 53.5931 146.445 54.3722 146.484 54.489C147.342 56.5925 148.2 58.7739 148.863 60.9942C149.643 63.5456 150.442 64.0715 152.646 63.8183C153.27 63.7599 154.264 63.8183 155.161 63.8183H155.551C156.019 63.8183 156.351 63.7209 156.487 63.5262C156.663 63.2924 156.565 62.9029 156.468 62.6302C155.766 60.6631 155.044 58.7154 154.303 56.7483ZM38.2562 58.8323C38.2757 58.0338 37.9052 57.7027 37.1252 57.7027C35.6041 57.7027 34.0636 57.7221 32.5426 57.7221H31.0605C30.8655 57.7221 30.885 57.7027 30.495 57.7027C29.637 57.7027 29.2665 58.0143 29.3055 58.8907C29.3445 60.1372 29.3445 61.4032 29.3055 62.6692C29.286 63.4677 29.6565 63.7988 30.4365 63.7988C31.0215 63.7988 31.041 63.7794 32.3671 63.7794C34.1416 63.7794 36.1696 63.7794 37.0667 63.7988C37.9247 63.8183 38.2952 63.4872 38.2562 62.6108C38.2172 61.3448 38.2367 60.0983 38.2562 58.8323ZM21.5248 42.3941C21.5248 42.8615 21.5053 43.29 21.5053 44.2638C21.5053 45.0624 21.5053 45.8414 21.5053 46.64C21.5053 46.7568 21.5248 46.8932 21.5443 47.0685C21.5638 47.3217 21.8758 47.3996 22.0318 47.2243C23.3774 45.6856 24.9179 44.6144 26.6729 44.2444C27.3165 44.108 27.5505 43.8548 27.57 43.2705V41.3424C27.57 40.0569 27.804 39.8232 29.13 39.8232C32.3086 39.94 33.7321 39.8427 36.9107 39.8621C37.8467 39.8621 38.2952 39.5505 38.2172 38.4988C38.1392 37.3691 38.1197 36.2395 38.2172 35.1098C38.3147 34.0192 37.8467 33.766 36.9107 33.766C31.509 33.7854 22.5778 33.7465 22.5778 33.7465C21.7003 33.7075 21.4858 34.0581 21.5053 34.8567C21.5248 37.2912 21.5248 39.7453 21.5248 42.1798C21.5248 42.2188 21.5248 42.2383 21.5248 42.2772V42.3941ZM34.3756 51.7428C35.3701 51.7623 35.7406 51.3144 35.5846 50.1458C35.4676 49.2304 35.4481 48.1592 35.5651 47.2632C35.7601 45.9778 35.3311 45.4909 34.2781 45.5103C33.3811 45.5103 32.4646 45.5103 31.5675 45.5103H29.754C29.6955 45.5298 29.6175 45.5298 29.559 45.5298C25.0739 45.5298 21.9733 48.5097 21.5248 53.0672C21.5248 56.2614 21.5053 59.475 21.5053 62.6692C21.5053 63.3703 22.0708 63.7988 22.5778 63.7988C22.5778 63.7988 24.5669 63.7988 26.4389 63.7988C27.0629 63.7988 27.5895 63.2924 27.5895 62.6497V56.7094C27.57 56.573 27.57 56.3977 27.57 56.2224V53.0283C27.57 52.2103 27.7845 51.7039 28.74 51.7428H31.8991C32.7376 51.7234 33.5566 51.7234 34.3756 51.7428ZM133.418 39.94C132.151 35.4799 128.095 32.7142 123.434 33.1232C118.754 33.5322 115.146 36.8822 114.6 41.4787C114.522 42.063 114.522 44.517 114.522 46.9711C114.678 51.3144 116.901 54.528 120.373 55.7355C120.509 55.794 120.665 55.8524 120.802 55.8719C121.036 55.8913 120.763 55.4823 120.724 55.2876C120.685 55.0344 120.626 54.8201 120.626 54.5475C120.587 53.4763 120.646 52.405 120.607 51.3338V43.3484C120.626 41.3034 121.426 39.9595 122.888 39.3752C122.986 39.3363 123.044 39.3168 123.142 39.2973C123.2 39.2778 123.493 39.1999 123.532 39.1805C123.707 39.1415 123.883 39.122 124.078 39.122C124.117 39.122 124.253 39.122 124.273 39.122C124.448 39.122 124.624 39.1415 124.819 39.1805C124.858 39.1999 124.994 39.2389 125.033 39.2389C125.092 39.2584 125.15 39.2778 125.228 39.2973C125.287 39.3168 125.326 39.3363 125.462 39.3752C126.944 39.9206 127.744 41.3034 127.744 43.3484V54.4306C127.705 56.5341 126.379 57.9169 124.331 57.9753C124.136 57.9753 123.337 57.9559 123.2 57.9559C119.534 57.8195 116.55 56.0861 114.737 53.3204C114.425 52.853 114.522 53.4373 114.522 53.5152C114.522 53.671 114.522 54.3916 114.542 54.6059C114.561 55.1512 114.6 55.6771 114.659 56.1835C115.205 60.7994 118.793 64.052 123.454 64.461C128.114 64.87 132.17 62.1044 133.438 57.6442C133.886 56.0666 133.828 54.4306 133.828 52.814V44.8092C133.789 43.1342 133.867 41.5176 133.418 39.94ZM91.9604 49.094C91.9604 44.4976 91.9409 39.8037 91.9799 35.2072C91.9994 34.0971 91.6289 33.6686 90.5174 33.766C89.4643 33.8439 88.3138 33.8439 87.2608 33.766C86.1688 33.6881 85.8958 34.1555 85.8958 35.1683C85.9348 39.8621 85.9153 44.6144 85.9153 49.3083C85.9153 54.08 85.9348 57.6832 85.8958 62.4549C85.8958 63.4483 86.2078 63.8378 87.2023 63.7794C88.2553 63.7209 89.4058 63.7014 90.4589 63.7794C91.6484 63.8767 91.9799 63.3898 91.9799 62.2407C91.9214 57.4689 91.9604 53.8658 91.9604 49.094ZM106.742 51.6844C106.742 50.9248 106.742 44.8092 106.742 43.9912C106.742 43.9912 106.742 41.8293 106.742 41.7708C106.742 37.2912 103.758 34.1944 99.1951 33.7465H96.504C95.3535 33.727 94.866 34.0776 94.9635 35.2657C95.0415 36.3174 95.0415 37.4665 94.9635 38.5182C94.905 39.531 95.295 39.8427 96.2895 39.8232H99.4291C100.131 39.8232 100.619 39.979 100.697 40.6412C100.697 41.2644 100.697 41.8293 100.697 42.3551V44.1275C100.697 45.5298 100.697 46.9711 100.697 49.0745C100.697 49.503 100.697 49.9315 100.697 50.3405C100.697 54.5085 100.716 57.878 100.677 62.2212C100.658 63.3703 101.009 63.8573 102.198 63.7599C103.251 63.682 104.402 63.682 105.455 63.7599C106.469 63.8183 106.781 63.4288 106.761 62.4355C106.722 58.5012 106.722 55.3655 106.742 51.6844ZM112.787 35.2072C112.865 34.0971 112.436 33.727 111.344 33.7465C111.344 33.7465 109.004 33.766 108.029 33.766C107.229 33.766 106.449 33.766 105.65 33.766C105.533 33.766 105.396 33.7854 105.221 33.8049C104.967 33.8244 104.889 34.136 105.065 34.2918C106.605 35.6357 107.678 37.1744 108.048 38.9273C108.185 39.57 108.438 39.8037 109.023 39.8232H111.383C112.397 39.8232 112.865 39.5505 112.787 38.4598C112.728 37.4081 112.728 36.259 112.787 35.2072ZM166.452 41.9461C166.101 41.0307 165.614 40.0374 165.263 39.122C164.6 37.4276 164.132 36.629 163.488 34.8761C163.196 34.0776 162.766 33.7465 161.986 33.7465C161.928 33.7465 161.889 33.7465 161.83 33.7465C160.875 33.8049 159.276 33.7854 158.34 33.766C158.047 33.766 157.755 33.766 157.462 33.766H157.443C157.17 33.766 156.994 33.8049 156.897 33.9218C156.799 34.0192 156.741 34.1944 156.741 34.4282L156.799 34.6035C156.858 34.7787 156.936 34.993 157.014 35.2072C157.54 36.4343 158.047 37.6418 158.574 38.8688C159.841 41.8098 160.972 44.2833 162.201 47.3022C162.376 47.7307 162.571 47.9644 162.786 48.0423C163 48.1202 163.293 48.0423 163.722 47.7891C165.126 46.9711 167.018 43.4069 166.452 41.9461ZM178.074 34.0386C177.957 33.8633 177.587 33.7854 176.885 33.7854C176.534 33.7854 175.968 33.7854 175.617 33.8049C174.935 33.8244 173.882 33.8244 173.199 33.766C172.224 33.6881 171.737 34.0386 171.366 35.0319C170.079 38.3624 169.319 40.2906 167.583 44.556C166.998 45.9778 165.984 49.2888 163.605 49.951C163.488 49.9899 163.41 50.0484 163.371 50.1068C163.332 50.2042 163.371 50.3405 163.449 50.4769C164.502 52.1324 164.444 53.9437 164.405 55.6966C164.385 56.1835 164.385 56.7094 164.385 57.1963C164.424 59.066 164.424 60.9358 164.385 62.786C164.366 63.234 164.444 63.5067 164.6 63.6625C164.756 63.8183 165.009 63.8767 165.399 63.8573C165.926 63.8378 166.823 63.8183 167.408 63.8183C167.973 63.8183 168.792 63.8378 169.455 63.8573C169.826 63.8767 170.079 63.7988 170.235 63.6625C170.391 63.5067 170.45 63.2535 170.45 62.8834C170.43 61.7538 170.43 60.5852 170.43 59.2413C170.43 58.6181 170.43 57.9559 170.43 57.2158C170.43 53.7489 171.171 51.1391 172.556 48.1202C173.921 45.1403 175.208 41.4592 176.456 38.4793C176.904 37.3886 177.372 36.3174 177.821 35.2267C178.133 34.5645 178.191 34.2139 178.074 34.0386ZM6.19747 62.4549C6.19747 63.4483 6.50948 63.8378 7.504 63.7794C8.55703 63.7209 9.70755 63.7014 10.7606 63.7794C11.9501 63.8767 12.2816 63.3898 12.2816 62.2407C12.2426 57.8974 12.2621 54.528 12.2621 50.36C12.2621 49.951 12.2621 49.5225 12.2621 49.094C12.2621 46.9906 12.2621 45.5298 12.2621 44.147V42.3746C12.2621 41.8293 12.2621 41.2644 12.2621 40.6607C12.3401 39.9985 12.8276 39.8232 13.5296 39.8427H16.6692C17.6637 39.8427 18.0537 39.531 17.9952 38.5377C17.9367 37.486 17.9172 36.3369 17.9952 35.2851C18.0927 34.0971 17.6052 33.766 16.4547 33.766H13.7636C9.20054 34.1945 6.21697 37.3107 6.21697 41.7903C6.21697 41.8682 6.21697 44.0106 6.21697 44.0106C6.21697 44.8287 6.21697 50.9443 6.21697 51.7039C6.21697 55.3655 6.23647 58.5012 6.19747 62.4549ZM0.152337 38.4598C0.0743349 39.5505 0.542345 39.8232 1.55637 39.8232H3.91592C4.48143 39.8037 4.75444 39.5505 4.89094 38.9273C5.26145 37.1744 6.33398 35.6162 7.87451 34.2918C8.06952 34.136 7.97201 33.8244 7.71851 33.8049C7.543 33.7854 7.426 33.7854 7.2895 33.766C6.48998 33.766 5.70996 33.766 4.91044 33.766C3.93542 33.766 1.59537 33.7465 1.59537 33.7465C0.483844 33.727 0.0548344 34.0971 0.152337 35.2072C0.230338 36.259 0.230338 37.4081 0.152337 38.4598ZM154.069 48.6461C155.337 47.1853 156.058 45.374 156.058 43.4069C156.058 37.8755 152.529 33.7465 146.971 33.7465C146.971 33.7465 144.28 33.766 142.837 33.766C141.394 33.766 138.956 33.7465 138.956 33.7465C137.747 33.727 137.221 34.2724 137.26 35.4604C137.26 40.427 137.318 46.0557 137.318 46.0557C137.318 46.3478 137.221 46.6789 137.455 47.01C137.494 47.0685 137.572 47.0685 137.63 47.0295C139.483 45.1598 139.756 44.9845 142.623 44.1665C143.208 44.0106 143.383 43.738 143.383 43.1731C143.403 42.3551 143.403 41.6735 143.364 41.0502C143.286 40.1348 143.52 39.7842 144.514 39.8427C145.06 39.8621 146.133 39.8427 147.03 39.8427C148.668 39.8427 149.994 41.2644 149.994 42.8226C149.994 44.4781 148.59 45.822 147.069 45.822C147.069 45.822 146.347 45.8025 145.743 45.8025C145.138 45.8025 144.514 45.822 144.514 45.822C144.339 45.822 144.066 45.8025 144.066 45.8025C140.029 45.8025 137.318 48.7045 137.318 53.0283C137.299 56.5146 137.279 60.2736 137.26 62.4744C137.26 63.0198 137.338 63.3703 137.552 63.5456C137.747 63.7209 138.059 63.7988 138.566 63.7794C139.834 63.7014 140.965 63.7014 142.018 63.7794C142.525 63.8183 142.857 63.7599 143.052 63.5651C143.266 63.3703 143.344 63.0003 143.344 62.3965C143.305 58.2285 143.305 58.6375 143.325 54.528V53.1257C143.325 52.2492 143.715 51.8597 144.573 51.8986L146.991 51.8597C149.701 51.8597 151.963 50.8859 153.543 49.1914L154.069 48.6461ZM80.5331 56.7288C80.0261 55.3655 79.5191 53.9826 79.0121 52.6193C78.8951 52.2882 78.5246 52.1518 78.2126 52.3271C76.6526 53.1646 74.8975 53.5736 72.8305 53.5736C72.1284 53.5736 72.6745 54.3527 72.7135 54.4696C73.5715 56.573 74.4295 58.7544 75.0925 60.9747C75.8725 63.5262 76.6721 64.052 78.8756 63.7988C79.4996 63.7404 80.4941 63.7988 81.3912 63.7988H81.7812C82.2492 63.7988 82.5807 63.7014 82.7172 63.5067C82.8927 63.273 82.7952 62.8834 82.6977 62.6108C81.9762 60.6436 81.2547 58.6765 80.5331 56.7288ZM80.2796 48.6071C81.5472 47.1464 82.2687 45.335 82.2687 43.3679C82.2687 37.8366 78.7391 33.7075 73.1815 33.7075C73.1815 33.7075 70.4904 33.727 69.0474 33.727C67.6044 33.727 65.1668 33.7075 65.1668 33.7075C63.9578 33.6881 63.4313 34.2334 63.4703 35.4215C63.4703 40.388 63.5288 46.0167 63.5288 46.0167C63.5288 46.3089 63.4313 46.64 63.6653 46.9711C63.7043 47.0295 63.7823 47.0295 63.8408 46.9906C65.6933 45.1208 65.9663 44.9455 68.8329 44.1275C69.4179 43.9717 69.5934 43.699 69.5934 43.1342C69.6129 42.3162 69.6129 41.6345 69.5739 41.0112C69.4959 40.0958 69.7299 39.7453 70.7244 39.8037C71.2704 39.8232 72.343 39.8037 73.24 39.8037C74.878 39.8037 76.204 41.2255 76.204 42.7836C76.204 44.4391 74.8 45.783 73.279 45.783C73.279 45.783 72.5575 45.7635 71.9529 45.7635C71.3484 45.7635 70.7244 45.783 70.7244 45.783C70.5489 45.783 70.2759 45.7635 70.2759 45.7635C66.2393 45.7635 63.5288 48.6655 63.5288 52.9893C63.5093 56.4756 63.4898 60.2346 63.4703 62.4355C63.4703 62.9808 63.5483 63.3314 63.7628 63.5067C63.9578 63.682 64.2698 63.7599 64.7768 63.7404C66.0443 63.6625 67.1753 63.6625 68.2284 63.7404C68.7354 63.7794 69.0669 63.7209 69.2619 63.5262C69.4764 63.3314 69.5544 62.9613 69.5544 62.3576C69.5154 58.1896 69.5154 58.5986 69.5349 54.489V53.1062C69.5349 52.2298 69.9249 51.8402 70.7829 51.8792L73.201 51.8402C75.9115 51.8402 78.1736 50.8664 79.7531 49.1719L80.2796 48.6071Z" fill="#2B292D"/>
<path d="M95.0999 11.699C95.0999 8.34906 95.1194 4.99909 95.0804 1.66859C95.0804 0.850578 95.2754 0.5 96.1529 0.538953C96.1529 0.538953 105.104 0.577907 110.505 0.55843C111.383 0.55843 111.851 0.792149 111.812 1.76598C111.753 2.97352 111.773 4.20055 111.812 5.40809C111.851 6.36245 111.402 6.6546 110.505 6.6546C107.307 6.63512 105.903 6.71302 102.725 6.61564C101.398 6.61564 101.164 6.84936 101.164 8.13481V11.0368C101.164 11.8548 101.379 12.3612 102.335 12.3223H105.143C106.059 12.3223 106.956 12.3223 107.873 12.3223C108.77 12.3223 109.218 12.6729 109.199 13.5883C109.179 14.7958 109.179 16.0228 109.199 17.2304C109.218 18.0873 108.809 18.4184 107.951 18.4184C107.132 18.399 106.313 18.399 105.494 18.399H102.335C102.315 18.399 102.296 18.399 102.276 18.399H97.1084C96.9914 18.399 96.6404 18.4184 96.4064 18.4184C95.5094 18.4184 95.0609 18.1263 95.0999 17.1719V11.699ZM85.9151 10.0435C85.9346 10.6083 86.1882 10.881 86.8122 11.0173C88.5672 11.3874 90.1272 12.4586 91.4533 13.9973C91.6093 14.192 91.9213 14.0946 91.9408 13.8414C91.9603 13.6662 91.9603 13.5493 91.9798 13.413C91.9798 12.6144 91.9798 11.8354 91.9798 11.0368C91.9798 10.063 91.9798 1.84388 91.9798 1.84388C91.9993 0.792149 91.5118 0.383141 90.2247 0.55843C89.3277 0.694766 88.3917 0.655813 87.4947 0.538953C86.3247 0.383141 85.8761 0.753196 85.8956 1.7465L85.9151 8.09586V10.0435ZM79.987 20.5998C79.9675 20.035 79.714 19.7623 79.09 19.626C77.335 19.2559 75.7749 18.1847 74.4489 16.6461C74.2929 16.4513 73.9809 16.5487 73.9614 16.8019C73.9419 16.9772 73.9419 17.094 73.9224 17.2304C73.9224 18.0289 73.9224 18.808 73.9224 19.6065C73.9224 20.5803 73.9224 29.2474 73.9224 29.2474C73.9029 30.2991 74.3904 30.7082 75.6774 30.5329C76.5744 30.3965 77.5105 30.4355 78.4075 30.5523C79.5775 30.7082 80.026 30.3381 80.0065 29.3448L79.987 22.5475V20.5998ZM91.9798 19.8402C91.5508 15.2827 88.4307 12.3028 83.9456 12.3028H83.5556H81.1375C80.182 12.3612 79.9675 11.8354 79.9675 11.0173V7.66738C79.9675 7.47261 79.9675 7.3168 79.987 7.18046V1.68807C79.987 1.06482 79.48 0.538953 78.8365 0.538953C76.9644 0.538953 74.9754 0.538953 74.9754 0.538953C74.0979 0.5 73.8834 0.850578 73.9029 1.66859C73.9419 4.86275 73.9224 7.62842 73.9224 10.8226C74.3514 15.3801 77.4715 18.36 81.9566 18.36H84.7646C85.7201 18.3016 85.9346 18.8274 85.9346 19.6455V22.9954C85.9346 23.1902 85.9346 23.346 85.9151 23.4823V29.4422C85.9151 30.0654 86.4222 30.5913 87.0657 30.5913C88.9377 30.5913 90.9268 30.5913 90.9268 30.5913C91.8043 30.6302 92.0188 30.2797 91.9993 29.4617C91.9603 26.248 91.9798 23.0344 91.9798 19.8402ZM69.3593 0.519477H54.5194C53.4079 0.5 52.9789 0.870055 53.0764 1.98022C53.1544 3.03195 53.1544 4.18107 53.0764 5.23281C52.9984 6.32349 53.4664 6.59617 54.4804 6.59617H69.5738C70.5683 6.59617 70.9583 6.28454 70.8998 5.29124C70.8413 4.2395 70.8218 3.09038 70.8998 2.03865C70.9973 0.850578 70.5098 0.5 69.3593 0.519477ZM63.7821 8.27115C63.5286 8.27115 63.1191 8.29063 63.0606 8.29063H61.0326C60.9741 8.29063 60.5646 8.27115 60.3111 8.27115C59.4141 8.27115 58.9655 8.5633 59.0045 9.51765C59.0435 14.2115 59.024 11.4069 59.024 16.0813C59.024 20.853 59.0435 24.4562 59.0045 29.2279C59.0045 30.2212 59.3166 30.6108 60.3111 30.5523C61.3641 30.4939 62.5146 30.4744 63.5676 30.5523C64.7572 30.6497 65.0887 30.1628 65.0887 29.0137C65.0302 24.2419 65.0692 20.6388 65.0692 15.867C65.0692 11.2705 65.0497 14.1141 65.0887 9.49817C65.1277 8.5633 64.6792 8.27115 63.7821 8.27115ZM111.812 25.9753C111.909 24.7873 111.441 24.4367 110.31 24.4562C107.951 24.4562 102.335 24.4367 102.335 24.4367C102.296 24.4367 102.218 24.4367 102.101 24.4367C101.34 24.3977 101.164 23.8914 101.164 23.1512C101.164 23.1512 101.164 23.1512 101.164 23.1318C101.164 22.4306 101.164 21.5931 101.164 21.262C101.203 20.3077 100.755 20.0155 99.858 20.0155C99.6045 20.0155 99.195 20.035 99.1364 20.035H97.1084C97.0499 20.035 96.6404 20.0155 96.3869 20.0155C95.4899 20.0155 95.0414 20.3077 95.0804 21.262C95.0804 21.8658 95.0999 21.9242 95.0999 22.2164C95.0999 22.489 95.0999 24.6315 95.0999 25.43C95.0999 25.4884 95.0999 25.5469 95.0999 25.6248C95.0999 26.2285 95.0999 26.287 95.0999 26.5791C95.0999 27.514 95.0999 28.1762 95.0804 29.4227C95.0804 30.2407 95.2754 30.5913 96.1529 30.5523C96.1529 30.5523 101.886 30.5523 103.017 30.5523C104.051 30.5523 108.38 30.5329 110.232 30.5718C110.291 30.5718 110.369 30.5718 110.466 30.5718C111.461 30.5718 111.87 30.2602 111.792 29.2474C111.753 28.1957 111.734 27.0271 111.812 25.9753Z" fill="#2B292D"/>
<path d="M47.6943 54.8201C47.6943 54.8007 47.6943 54.7812 47.6943 54.7422C47.6943 53.9632 47.4993 53.5152 46.7583 53.4568H46.3487C45.2177 53.4957 44.0867 53.4957 42.9557 53.4568H42.6632C41.8831 53.4957 41.6491 53.9437 41.6491 54.7422C41.6491 54.7812 41.6491 54.8201 41.6491 54.8591C41.6296 57.021 41.6101 59.7088 41.5906 62.0849C41.5516 63.273 42.0781 63.7988 43.2872 63.7988C43.2872 63.7988 44.6717 63.7988 46.5437 63.7988C47.1678 63.7988 47.6943 63.2925 47.6943 62.6497C47.6943 59.8451 47.6748 58.2285 47.6748 56.5341C47.6553 56.164 47.6943 55.4824 47.6943 54.8201Z" fill="#2B292D"/>
<path d="M60.2137 62.6108C59.4922 60.6436 58.7707 58.696 58.0297 56.7483C57.3277 54.8591 56.6257 52.9699 55.9236 51.0806C55.9041 51.0417 55.8846 51.0027 55.8651 50.9638C55.7481 50.6521 55.7481 50.4769 55.8846 50.3016C58.3417 48.685 59.8042 45.783 59.8042 42.1214C59.3362 37.2523 55.9821 33.727 50.873 33.727C50.873 33.727 48.494 33.7465 47.0704 33.7465C45.6469 33.7465 43.2289 33.727 43.2289 33.727C42.0393 33.7075 41.5128 34.2529 41.5518 35.4215C41.5518 35.9084 41.5908 39.1999 41.6103 42.7057C41.6103 43.4848 41.8053 43.9327 42.5268 43.9912H42.9364C44.0479 43.9522 45.1789 43.9522 46.2904 43.9912H46.5829C47.3434 43.9522 47.597 43.5237 47.597 42.7057C47.597 42.6667 47.597 42.6278 47.597 42.5888C47.597 41.9072 47.597 41.2644 47.5775 40.9333C47.4995 40.0179 47.7335 39.6868 48.728 39.7453C49.2545 39.7647 50.0345 39.7453 50.912 39.7453C52.5306 39.7453 53.8566 41.1476 53.8566 42.7057C53.8566 44.4586 52.6476 45.4909 50.9705 45.4909H49.0205C48.9035 45.4909 48.728 45.4909 48.572 45.4909H42.9754C41.9028 45.4909 41.5518 46.0362 41.6103 47.0879C41.6688 48.1007 41.7078 49.1135 41.6103 50.1263C41.4738 51.4507 42.0588 51.7428 43.2484 51.7428C43.2679 51.7428 43.2679 51.7428 43.2874 51.7428H47.792C48.26 51.7428 49.157 51.8792 49.391 52.5219C49.469 52.7361 49.5665 52.9504 49.6445 53.1841C50.5025 55.2876 51.887 58.7544 52.5501 60.9747C53.3301 63.5261 54.1296 64.052 56.3332 63.7988C56.9572 63.7404 57.9517 63.7988 58.8487 63.7988H59.2387C59.7067 63.7988 60.0382 63.7014 60.1747 63.5067C60.2332 63.4093 60.2722 63.3119 60.2722 63.195C60.3307 63.0003 60.2917 62.786 60.2137 62.6108Z" fill="#2B292D"/>
</g>
<defs>
<clipPath id="clip0_777_7168">
<rect width="178" height="64" fill="white" transform="translate(0.132812 0.5)"/>
</clipPath>
</defs>
</svg>
