<svg width="929" height="510" viewBox="0 0 929 510" fill="none" xmlns="http://www.w3.org/2000/svg">
    <path d="M34.5544 432.206L35.0081 431.322L35.032 427.807L29.2291 421.663L26.1486 415.878L23.3308 408.73L20.5846 407.056L18.2443 400.41L18.0294 399.143L18.316 396.561L16.716 393.908L13.4444 390.083L12.5131 387.357L12.3698 381.739L13.4206 379.014L13.9937 375.524L16.2145 368.352L18.0055 364.766L21.683 361.873L22.3278 359.459L22.686 356.231L22.1129 352.502L23.6173 347.912L23.3308 345.186L21.9218 341.29L19.7965 338.277L19.4144 336.006L23.1397 328.452L26.6023 318.483L29.1097 314.753L30.638 313.893L32.5484 313.558L32.8828 314.227L31.5932 316.666L30.3276 324.005L31.9992 327.543L31.1873 332.707L32.3096 333.855L37.9692 331.464L38.6856 328.476L40.2617 324.435L44.5362 317.001L45.2048 314.706L52.7748 310.498L55.6165 310.283L60.6074 307.797L65.9566 305.741L70.3027 300.601L71.8788 299.381L75.1504 297.971L78.2309 293.333L84.3203 290.488L84.9889 288.719L86.6366 287.811L88.2127 287.619L92.5111 286.089L95.9021 283.986L98.5289 281.762L100.63 282.217L101.753 283.34L102.899 283.651L107.842 280.997L110.397 281.882L111.233 282.838L113.048 283.651L114.982 284.01L116.63 283.986L123.866 282.503L128.14 280.639L133.824 275.164L136.665 273.467L137.023 274.16L138.122 274.184L146.169 272.845L149.083 273.013L152.808 271.769L156.677 267.132L157.441 265.052L160.044 263.067L162.862 262.804L169.214 264.382L173.034 265.864L178.312 263.139L190.085 261.418L192.616 260.581L206.658 254.724L210.526 252.716L216.998 247.313L222.49 239.878L226.406 231.439L229.988 226.61L229.678 224.411L230.609 222.355L231.23 221.757L232.926 222.163L234.215 221.47L236.125 219.94L237.51 217.908L239.11 217.119L244.531 212.84L245.319 210.927L245.176 209.445L244.412 208.728L242.358 208.154L241.188 206.409L240.901 201.293L239.373 197.324L239.445 192.041L240.257 188.814L242.382 185.156L245.558 182.144L247.325 181.02L250.621 180.996L249.307 178.056L250.406 176.574L251.122 176.287L251.695 176.837H252.316L255.229 175.833L255.492 175.068L254.823 174.087L255.444 171.482L256.185 170.645L257.546 170.358L258.907 168.852L259.05 167.37L259.599 166.485L261.438 165.816L263.205 167.585L262.656 168.278L261.367 168.135L260.507 171.123L262.155 173.37L264.137 174.613L264.662 176.669L269.629 185.969L276.005 196.177L276.578 198.4L277.056 196.034L276.172 194.312L276.268 192.185L277.701 187.834L276.53 184.248L277.008 182.192L278.656 182.144L281.951 186.136L283.862 187.858L284.793 188.264L285.438 187.905L284.435 187.427L283.241 185.945L282.309 182.216L284.769 179.395L283.909 178.94L281.927 179.538L281.521 179.251L280.256 176.55L277.414 173.466L277.557 170.525L274.644 170.573L272.662 168.78L274.429 168.708L278.25 169.569L280.017 166.891L280.232 165.505L279.969 164.453L277.08 163.879L276.148 163.043L276.077 160.676L276.435 159.911L280.471 159.026L282.548 160.652L281.975 161.919L280.638 162.278L283.408 165.194L284.769 165.481L284.817 164.429L286.679 161.895L289.832 162.349L291.217 162.971L291.909 163.425L292.84 165.648L293.557 166.15L296.231 166.294L297.569 164.764L299.933 165.911L302.607 166.174L306.5 165.624L309.27 166.844L310.75 166.222L308.745 166.031L305.688 164.596L303.563 164.094L302.201 163.999L300.076 164.62H298.476L298.022 164.142L297.378 161.25L298.787 158.046L299.837 157.807L301.079 159.696L303.013 158.357L302.822 155.894L303.586 153.097L306.5 150.157L305.043 149.559L303.634 149.966L301.533 153.552L300.315 153.576L298.046 151.615L297.306 146.356L299.527 141.264L300.339 140.905L302.751 142.292L304.685 141.288L305.139 140.618L304.852 135.478L305.951 135.215L311.324 137.965L313.425 139.997L318.297 142.363L315.574 139.949L315.431 139.351L316.673 137.08L316.123 136.506L313.903 136.482L311.324 137.439L311.037 135.909L311.992 134.57L312.995 134.092L313.735 134.57L314.762 132.801L313.95 132.586L310.559 134.833L309.843 134.809L309.079 132.777L309.915 131.701L311.037 131.175L312.565 131.629L313.115 131.462L314.476 130.506L314.094 129.597L315.646 128.498L317.437 132.538L317.891 132.825L318.153 131.677L317.819 129.382L320.876 131.175L320.947 132.131L321.974 132.633L324.386 132.514L324.911 132.012L324.458 131.629L323.669 131.701L322.977 131.08L323.741 130.338L320.923 128.33L318.368 127.063L319.228 126.059L319.92 125.82L317.15 121.708L319.944 117.716L322.356 115.708L323.717 116.281L328.923 116.401L329.186 113.15L328.684 110.018L329.019 108.225L329.687 107.723L332.553 109.086L330.308 118.6L330.786 118.098L332.386 112.576L335.514 114.178L335.036 117.046L335.538 117.979L337.066 118.935L339.359 116.377L340.577 115.516L341.317 110.95L343.299 106.91L343.394 105.237L341.699 100.886L340.051 99.8337L341.341 99.5468L343.418 99.8576L345.209 100.766L344.994 102.774L343.657 103.348L344.541 106.265L345.639 106.575L347.024 107.986L347.693 106.934L347.215 105.523L348.242 103.133L350.773 101.125L352.612 100.862L351.394 103.85L354.331 107.651L355.167 107.89L357.842 105.069L360.063 101.029L358.94 96.3433L361.854 95.1719L364.385 94.5743L365.985 95.8652L367.465 97.7777L367.012 98.7818L368.85 101.053L369.495 100.025L369.519 99.1643L371.788 99.0687L376.54 100.599L379.023 104.113L382.581 106.504L390.342 117.309L391.465 116.76L395.859 120.537L396.336 123.143L395.095 124.936L393.256 131.151L393.518 133.972L393.351 139.064L391.99 141.79L393.232 141.072L393.948 140.068L394.856 134.187L396.145 134.713L398.103 136.65L398.868 139.184L398.987 136.602L397.244 133.566L396.408 130.219L399.369 126.155L399.894 126.25L400.587 129.669L403.047 129.741L403.309 128.522L402.282 126.657L401.471 123.143L405.315 122.043L417.351 125.055V139.16V189.34L417.494 432.206L417.184 600.078L411.811 602.42L405.626 606.03L396.002 610.405L391.584 612.174L384.468 613.561L374.032 617.601L368.588 618.557L357.245 619.083L349.794 618.366L344.087 616.717L341.221 618.127L338.714 617.577L334.415 619.92L326.869 626.136L325.031 626.949L321.353 627.737L313.401 632.136L310.392 634.838L306.954 636.918L298.046 638.376L294.918 639.619L292.53 641.579L290.357 644.353L287.658 652.194L286.441 657.334L283.957 659.079L281.617 661.541L280.733 663.31L280.709 664.147L279.563 665.414L275.671 668.068L271.205 667.733L270.537 667.996L268.984 670.1L267.79 671.008L266.023 671.582L264.28 667.47L262.131 666.562L257.641 668.092L254.656 667.661L251.122 667.805L250.644 668.283L246.943 668.665L244.889 668.259L243.433 668.833L242.501 669.909L242.215 671.486L238.776 671.845L237.773 671.51L238.322 670.339L237.558 667.637L236.054 665.701L235.528 665.51L233.523 665.868L232.09 667.231L229.988 667.829L223.302 665.414L221.702 665.295L218.454 665.223L211.075 666.514H206.18L204.341 667.494L197.822 668.403L194.622 670.172L190.371 669.096L183.948 668.761L178.981 670.291L177.07 672.395L173.894 674.092L172.533 675.646L170.384 679.423L170.026 681.336L166.348 684.946L163.315 686.739L159.948 685.543L155.602 685.137L151.137 688.173L150.611 688.962L151.519 689.966L150.611 690.994L148.51 692.285L144.331 693.648L142.802 695.226L142.014 697.305L139.268 699.361L134.086 702.135L127.758 703.282L127.662 703.928L128.283 704.597L131.865 705.386L130.265 706.294L128.307 705.936L126.373 704.406L124.892 703.856L123.269 703.951L122.457 704.525L121.86 706.701L119.878 705.123L114.672 702.924L104.762 702.876L103.4 704.143L102.803 704.167L98.9587 702.924L95.7827 703.426L92.1051 702.374L85.8008 698.166L79.4965 696.708L77.9443 693.05L75.3653 690.062L71.0669 685.663L67.1267 683.033L62.4223 680.571L60.5358 680.356L58.6493 680.81L57.4553 682.364L54.518 679.232L54.5419 676.531L53.1808 666.872L53.0852 661.47L54.2076 656.258L55.3061 656.569L56.906 658.959L59.9866 660.274L62.4462 660.059L64.5476 659.294L65.4073 658.792L72.7385 648.225L71.6161 639.523L69.6818 629.961L70.2788 627.881L72.2609 625.419L72.1654 626.399L70.6848 628.048L70.637 629.291L71.6878 632.28L72.4042 633.356L72.8818 633.021L72.834 631.347L74.028 626.949L73.2638 619.251L73.8608 615.306L73.4071 612.366L73.5504 606.222L72.5713 600.843L71.9504 599.145L65.6222 587.598L63.8312 582.243L62.3268 578.753L58.6254 572.298L55.4971 564.29L55.6882 563.477L54.8762 557.404L53.1569 551.476L52.6315 551.021L52.7509 539.427L53.6822 534L52.3927 529.482L51.7241 528.406L51.3181 525.633L49.957 522.405L44.369 515.759L43.6526 513.584L43.4616 508.755L41.3602 504.499L36.2976 496.921L34.3394 495.726L32.3335 492.857L30.7813 485.852L31.1156 483.677L31.9753 481.645L31.4738 478.609L30.2082 474.186L26.674 466.847L23.092 460.129L17.5518 452.12L9.64752 443.705L8.19084 439.091L9.38484 436.7L9.21768 434.047L9.3132 433.354L9.81468 432.995L10.2445 438.589L11.0326 440.215L11.8445 435.625L15.6892 440.382L16.2145 441.936L16.525 446.837L17.122 448.606L19.0324 451.044L19.8443 451.212L19.9159 450.471L21.5875 449.323L22.686 449.586L24.5486 446.813L24.6919 441.888L22.8293 439.402L19.2712 437.059L16.6444 434.334L15.1399 428.118L12.5131 423.863L12.9668 421.496L14.5429 418.986L15.2832 419.536L17.6951 423.887L20.4413 426.253L21.3965 428.955L20.7756 432.349L20.0592 433.138L20.1308 435.577L20.895 437.8L22.2084 437.92L23.092 436.963L25.1695 432.947L26.5307 439.689L27.2471 441.53L30.1127 445.379L33.3604 442.821L34.0529 440.502L33.2648 439.378L32.7634 437.346L33.6469 431.776L34.5544 432.206ZM7.73712 436.342L6.97296 435.72L3.12828 429.887L1.194 425.99L0 421.496L0.16716 418.986L1.194 417.504L2.48352 417.814L1.95816 419.081L2.05368 419.87L5.11032 428.62L7.73712 433.401L8.26248 435.29L7.73712 436.342ZM301.103 140.475L300.888 139.734L299.503 138.443L299.718 137.247L300.363 136.219L302.058 135.526L304.303 139.279L301.103 140.475ZM63.8074 288.121L62.9238 287.38L62.279 288.002L62.088 287.787L62.1119 286.328L64.7626 282.742L65.6222 282.217L65.9327 282.384L66.2909 284.272L66.1715 285.109L64.667 287.452L63.8074 288.121ZM317.079 119.198L315.717 118.457L315.885 116.425L316.482 114.895L317.7 113.628L318.894 114.967L318.297 117.883L317.365 118.337L317.079 119.198Z" fill="#475C67"/>
    <path d="M961.002 782.915L915.033 759.725L912.693 759.534L914.795 755.9L915.057 753.581L912.669 748.705L911.022 746.601L909.684 736.034L906.866 734.241L902.52 732.376L900.299 733.237L896.646 732.544L894.234 732.95L891.822 735.962L889.482 736.178L885.136 737.708L881.649 737.468L875.87 735.652L873.554 733.835L870.879 733.428L869.255 733.643L868.348 734.6L865.626 735.771L860.253 735.293L852.85 733.882L851.035 733.117L847.978 730.177L846.092 728.695L845.447 728.623L843.489 729.053L841.22 730.296L838.952 730.081L838.068 729.364H834.892L831.644 730.201L831.167 730.775L830.259 734.074L830.665 737.325L826.08 738.616L825.077 738.353L821.878 736.488L816.433 730.105L815.096 727.045L814.499 726.424L813.018 725.946L810.391 723.603L808.385 720.829L803.944 718.463L799.956 715.427L798.117 714.757L797.042 714.996L795.442 713.801L795.013 713.132L795.61 711.315L794.607 709.761L792.505 709.235L790.571 708.04L789.377 705.41L788.684 701.465L789.305 698.333L789.329 696.349L788.995 695.847L783.479 692.835L779.61 692.572L776.553 691.329L776.195 690.468L774.571 689.392L773.091 689.894L772.637 690.54L771.801 694.245L770.631 695.728L768.434 695.297L767.551 694.269L767.622 693.648L766.237 689.942L763.992 687.862L763.873 683.368L760.267 677.296L758.19 675.861L755.205 674.499L751.145 675.335L747.3 674.331L745.008 675.216L743.551 677.224L742.286 677.893L741.832 677.272L738.942 675.503L734.692 673.518L730.226 673.184L729.438 672.969L728.22 671.773L728.34 519.489L731.42 519.465L783.479 519.489H823.86H856.766H934.448L936.43 518.509L939.463 514.707L947.749 507.655L950.615 506.866L951.283 506.986L951.689 507.846L953.958 508.516L961.934 507.822L965.659 506.388L969.169 505.958L969.886 506.125L971.868 508.181L973.659 509.4L977.981 509.52L981.897 508.707L988.44 511.695L995.055 517.409L995.366 521.903L996.416 524.246L996.99 524.509L998.255 524.198L999.497 522.883L1001.84 518.102L1006.3 516.118L1007.26 517.959L1008.86 518.724L1013.82 516.333L1014.66 511.528L1012.32 506.221L1014.83 504.236L1017.74 502.802L1022.9 501.105L1023.95 500.387L1024.48 499.049L1025.96 497.806L1027.1 497.973L1028.8 499.718L1033.05 500.65L1037.9 500.148L1042.17 500.435L1044.15 497.806L1047.62 497.16L1050.46 496.06L1052.39 494.483L1054.25 496.18L1054.61 498.116L1053.78 504.499L1054.25 507.846L1055.45 509.472L1054.97 515.401L1050.89 520.756L1048.02 529.171L1048.74 531.251L1045.85 547.722L1044.58 552.551L1039.76 566.13L1039.42 574.139L1039.83 575.597L1040.74 575.717L1041.19 577.558L1038.54 586.451L1038.04 589.965L1035.32 598.978L1033.02 603.664L1027.77 610.31L1026.58 613.418L1027.34 617.458L1027.03 621.737L1022.52 625.562L1020.58 627.809L1016.6 630.296L1016.38 631.61L1017.02 632.997L1012.06 634.742L1008.4 636.631L1004.7 642.201L1002.24 648.297L1001.67 648.775L1000.36 648.871L999.139 649.851L998.876 651.262L999.975 652.242L999.139 655.565L996.178 659.533L995.055 667.9L994.434 670.148L993.503 670.865L991.999 670.698L989.969 671.51L991.402 671.893L992.452 672.873L990.351 676.292L988.011 678.037L985.694 681.455L983.259 688.556L984.309 689.847L983.02 695.728L981.348 696.78L980.823 698.596L981.73 701.25L983.545 703.139L983.139 705.242L982.447 705.84L981.587 704.908L981.897 704.262L981.539 702.804L980.847 702.732L979.199 703.76L979.008 704.812L979.677 706.438L978.22 708.063L975.45 709.593L974.041 712.247L973.898 713.586L971.987 719.132L970.674 721.26L965.659 732.257L965.014 737.731L964.967 744.664L963.462 746.625L962.077 754.323L960.596 759.702L958.949 763.861L959.068 768.571L961.647 771.559L961.982 773.806L961.958 774.882L961.193 774.643L960.095 775.456L960.143 779.233L961.002 782.915ZM938.245 729.555L938.436 728.599L937.863 722.025L939.343 716.096L940.585 714.351L942.543 713.418L944.955 713.753L946.101 712.725L944.501 711.697L942.113 710.837L940.752 709.211L937.719 707.49L930.914 712.51L929.672 718.63L929.624 723.053L930.317 724.941L933.779 730.081L934.4 730.607L937.003 731.492L938.245 729.555Z" fill="#475C67"/>
    <path d="M606.576 677.248L603.997 681.408L601.895 682.34L599.675 686.141L597 687.814L595.4 690.994L593.561 696.564L594.206 696.875L595.352 696.732L598.815 694.293L599.173 695.943L598.767 702.134L597.525 702.66L596.833 701.346L594.66 698.931L593.108 697.975L591.484 698.214L590.337 700.915L589.406 700.891L588.427 699.003L585.012 694.532L581.168 690.564L579.138 688.938L578.302 688.675L575.627 689.607L576.654 686.763L578.135 684.635L578.254 686.595L581.645 690.229L583.006 691.161L585.585 690.325L582.959 689.273L582.624 688.293L582.481 687.48L582.911 686.523L581.765 680.069L579.782 674.785L579.472 671.247L577.729 668.546L573.574 663.86L568.583 659.796L569.299 656.808L569.036 654.656L567.747 650.975L565.12 645.548L562.159 644.4L557.359 645.165L555.305 646.337L553.729 644.568L553.753 643.779L551.843 638.687L548.691 631.515L550.768 631.658L551.795 632.614L552.153 634.168L553.92 631.754L554.446 630.176L553.92 627.45L552.082 624.845L550.458 623.434L549.718 623.315L545.61 624.606L543.939 626.207L542.96 626.016L543.007 623.53L543.748 621.832L545.061 622.358L545.491 621.641L542.267 617.147L539.664 615.617L538.04 614.158L538.327 613.035L536.56 612.485L535.915 613.011L535.533 614.565L533.408 615.904L525.145 615.33L524.357 615.139L522.542 613.178L520.154 612.318L516.5 608.851L515.259 608.182L510.053 607.56L507.569 608.062L505.635 609.855L503.39 610.644L501.767 610.764L499.976 610.31L495.605 605.887L488.919 601.034L478.436 595.607L472.824 593.503L471.964 593.599L469.314 595.75L464.944 597.448L463.63 597.615L449.875 596.587L446.914 596.683L441.398 597.113L438.867 597.759L423.154 599.097L417.184 600.078L417.327 432.302L440.514 432.134L475.069 432.158L650.491 432.134H728.268L728.34 519.513L728.22 671.797L727.552 670.913L727.456 800.964L724.424 800.653L722.37 801.275L720.483 801.203L716.113 798.86L711.6 794.318L708.543 788.126L705.511 783.512L703.648 782.197L702.191 782.269L697.535 776.006L695.911 772.754L696.723 771.081L696.651 769.766L695.433 766.73L695.911 763.742L697.75 762.212L698.753 759.63L698.729 755.303L697.773 751.884L693.236 740.815L686.072 731.253L681.344 726.161L678.574 723.913L679.84 724.32L686.908 730.512L691.589 736.942L693.571 741.03L693.284 738.807L692.09 735.436L691.111 733.978L688.03 730.416L679.004 721.762L678.956 718.941L680.556 718.295L682.514 719.993L682.275 723.985L682.681 724.535L685.117 724.272L685.786 721.499L686.096 717.267L685.666 714.231L681.941 712.39L679.935 714.375L678.502 714.805L676.974 714.733L675.661 715.307L675.135 716.598L675.398 717.435L676.879 717.913L677.38 718.534L676.21 720.04L669.213 719.443L667.374 720.208L665.822 722.096L664.413 723.077L655.052 723.579L652.927 721.977L654.479 719.228L657.918 717.506L661.882 713.227L662.622 709.043L662.312 707.944L662.574 705.936L663.84 703.162L662.98 698.046L663.577 695.225L663.362 693.839L661.786 691.114L657.631 686.021L656.198 680.858L652.903 675.24L652.282 675.383L650.706 679.065L651.399 680.451L651.017 681.766L648.557 684.3L647.649 687.432L647.291 693.265L644.02 703.927L643.996 706.557L642.085 708.111L638.408 706.438L636.521 705.96L635.518 706.151L630.647 707.992L629.548 709.785L628.928 710.191L625.322 709.641L623.316 711.41L621.835 711.96L620.999 711.554L620.259 710.311L621.214 708.757L622.981 707.011L623.602 705.505L624.032 701.059L625.25 699.266L627.423 700.126L629.644 699.529L631.936 699.385L632.39 700.102L634.611 701.106L635.9 700.413L636.426 699.098L637.572 691.592L637.118 685.735L637.429 679.925L636.354 675.981L636.736 675.455H638.002L638.766 673.973L640.079 669.622L640.294 667.374L644.832 661.565L647.745 658.696L648.843 658.386L649.273 657.262L648.437 653.604L645.811 648.56L646.599 646.217L648.079 645.165L649.464 644.615L651.136 644.568L651.852 643.994L651.661 642.416L650.873 640.91L649.464 640.312L647.96 633.475L646.599 630.439L645.882 626.733L644.497 625.681L644.282 630.678L644.879 631.013L645.476 632.064L645.644 635.34L644.784 639.786L643.423 639.858L640.127 640.91L637.357 643.922L634.683 649.253L634.539 651.811L634.062 653.246L630.145 660.585L628.378 662.067L625.226 662.187L623.387 661.063L621.692 663.597L622.169 663.932L621.167 664.984L613.811 668.881L609.489 672.275L608.009 673.805L607.865 674.809L606.576 677.248ZM648.199 725.491L652.139 726.567L653.405 728.288L653.428 729.962L651.542 731.659L648.461 730.153L644.306 729.842L640.653 731.563L640.175 732.233L640.509 734.432L639.769 735.173L636.378 736.847L633.847 734.265L630.432 733.619L629.477 733.93L629.19 735.102L628.45 735.532L625.369 735.245L621.955 735.771L617.083 735.914L616.247 734.528L612.57 731.468L612.45 730.344L613.668 726.758L623.172 723.937L625.202 723.913L627.638 723.34L632.748 721.068L638.169 721.523L639.697 722.981L639.674 725.563L640.032 726.041L642.515 726.376L645.07 727.834L646.599 727.954L648.199 725.491Z" fill="#475C67"/>
    <path d="M961.002 335.05V335.48L962.602 337.01L961.265 332.396L959.57 328.906L959.593 327.591L960.596 324.937L961.623 323.599L962.769 323.288L963.677 323.67L965.659 326.73L966.829 330.053L969.981 331.344L974.089 334.165L977.026 335.504L975.521 331.942L975.497 329.838L976.214 328.38L978.1 328.715L979.939 331.464L979.175 333.233L979.366 334.596L982.876 339.592L981.229 350.756L982.685 353.769L982.375 357.785L984.094 361.275L986.196 362.423L988.13 362.71L988.87 364.407L990.637 365.746L991.879 369.332L993.718 370.336H994.578L995.796 371.197L998.542 374.591L1000.31 375.117L1001.69 376.217L1001.29 376.862L1001.46 377.651L1002.17 377.938L1003.44 376.695L1003.48 375.165L1004.11 374.567L1005.25 374.902L1007.95 378.01L1011.72 381.381L1013.71 387.286L1016.86 392.449L1020.63 395.342L1024.28 396.777L1025.57 398.259L1026.34 400.1L1026.6 403.518L1030.85 410.571L1034.41 411.646L1036.96 411.814L1037.97 416.021L1037.66 418.555L1036.61 419.631L1036.75 422.978L1037.32 424.58L1038.18 425.393L1038.97 425.608L1040.36 429.003L1044.08 430.7L1044.18 431.393L1042.93 434.095L1041.24 441.027L1041.72 442.892L1042.36 451.427L1043.08 453.172L1043.44 463.38L1041.84 463.882L1040.26 466.105L1041.05 470.074L1043.89 472.273L1045.99 474.903L1047.62 480.473L1049.81 483.557L1050.58 485.637L1050 489.534L1051.29 492.785L1052.49 494.459L1050.55 496.036L1047.71 497.136L1044.25 497.782L1042.27 500.411L1037.99 500.124L1033.14 500.626L1028.89 499.694L1027.2 497.949L1026.05 497.782L1024.57 499.025L1024.05 500.363L1022.99 501.081L1017.84 502.778L1014.92 504.212L1012.42 506.197L1014.76 511.504L1013.92 516.309L1008.95 518.7L1007.35 517.935L1006.4 516.094L1001.93 518.078L999.592 522.859L998.351 524.174L997.085 524.485L996.512 524.222L995.461 521.879L995.151 517.385L988.536 511.671L981.993 508.683L978.077 509.496L973.754 509.376L971.963 508.157L969.981 506.101L969.265 505.934L965.754 506.364L962.029 507.798L954.053 508.492L951.785 507.822L951.379 506.962L950.71 506.842L947.844 507.631L939.558 514.683L936.525 518.485L934.543 519.465H856.862H823.86H783.502L731.444 519.441L728.34 519.513L728.292 432.158H650.515V170.262L655.553 174.374L658.037 175.33L663.123 176.55L667.087 176.311L668.329 177.219L672.365 178.916L676.711 179.538L680.102 184.248L680.651 187.738L681.965 190.272L683.206 191.491L685.188 192.185L687.791 192.495L690.346 194.193L692.448 196.32L697.582 197.803L699.349 198.854L701.857 201.102L702.883 201.532L705.821 201.699L712.674 200.456L716.232 199.141L718.453 197.946L722.035 195.173L723.993 194.48L725.355 191.993L726.811 186.351L727.193 182.311L733.354 174.302L735.742 168.9L736.506 164.979L739.396 157.377L738.727 152.858L740.28 142.961L744.793 132.609L745.605 129.334L743.05 122.306L741.879 114.775L742.262 112.576L743.742 108.775L743.933 105.81L743.36 103.73L740.757 100.623L740.542 97.4191L742.429 89.5777L746.226 82.1906L745.939 81.0192L744.745 79.6804L743.575 75.0904L743.79 74.3254L744.124 73.7277L746.775 72.0543L747.778 70.835L749.043 67.3208L750.596 67.7989L751.431 69.2333L751.455 71.361L752.554 73.0344L752.769 71.9108L751.312 67.6555L750.166 66.8187L747.014 62.0852L747.778 61.4637L747.276 61.0812L745.581 60.9616L745.366 62.5156L746.178 63.6153L744.673 64.0934L743.766 63.687L743.814 63.0893L746.25 57.806L748.518 54.6742L748.112 53.7658L749.282 50.4189L750.405 48.7454L751.527 48.2434L752.172 51.399L754.942 50.8492L755.157 50.2037L753.055 48.1477L752.96 47.0719L753.533 44.0119L757.521 32.5368L758.452 26.6797L757.927 22.0657L758.166 21.4202L759.121 20.727L763.228 20.0098L764.685 18.0733L765.855 15.1328L767.789 15.0611L770.225 16.2086L769.413 17.4518L767.694 19.0296L767.503 21.4442L769.15 19.3404L770.082 19.4121L773.592 22.4004L774.714 24.8628L776.72 33.0388L776.052 36.1945L776.768 41.5734L776.577 44.6574L779.395 47.1437L781.186 47.2871L782.881 46.5221L783.622 46.809L785.365 48.7215L782.858 52.7617L782.332 54.985L782.213 57.8777L783.55 58.2602L784.362 58.045L786.654 59.1686L787.371 59.9576L787.466 62.7307L788.613 63.926L789.592 64.0217L791.359 65.3604L789.926 68.6834L789.592 71.4805L790.714 72.0543L793.269 71.7674L793.532 72.2933L793.126 78.1026L793.723 83.5533L793.914 84.5096L794.941 85.4897L795.609 86.9241L795.395 89.4104L793.938 95.5305L795.777 100.312L797.974 102.631L798.308 106.934L799.311 110.496L800.481 113.006L801.365 113.962L803.227 114.966L806.451 114.99L810.129 112.122L817.436 108.775L818.51 106.36L819.537 106.599L821.161 109.038L820.851 111.572L822.092 114.943L823.716 116.879L827.633 118.385L829.4 118.505L831.024 122.115L837.423 125.007L840.265 127.23L840.098 128.808L838.14 132.275L838.235 133.853L839.262 135.55L839.596 137.534L838.546 140.618L840.002 143.511L841.411 148.316V153.169L842.725 154.484L844.086 157.663L843.656 163.162L842.677 164.525L842.51 167.298L842.749 168.087L844.11 168.947L852.969 180.016L853.829 179.299L856.241 178.893L856.862 179.658L854.856 183.459L854.975 184.295L856.814 187.451L858.844 192.208L860.229 197.301L860.706 201.054L860.229 203.636L860.611 206.409L860.444 208.202L858.056 213.27L858.247 215.876L863.5 222.761L866.652 223.956L866.461 226.992L865.291 229.718L864.957 232.61L865.196 233.519L866.7 235.527L868.969 237.296L869.614 238.539L872.646 240.523L874.963 241.623L877.804 241.695L880.98 244.874L882.748 244.946L885.828 245.95L887.571 247.6L890.532 248.221L895.165 247.863L895.547 247.05L894.377 245.018L895.858 246.715L898.365 251.234L899.392 256.493L900.013 257.76L901.326 259.171L902.735 259.505L903.929 259.218L903.523 256.995L903.714 256.039L905.29 256.063L906.054 256.876L906.365 259.912L907.607 261.083L909.159 261.752L912.407 261.609L915.606 262.541L917.66 265.028L916.824 265.362L917.039 266.103L918.568 267.992L920.621 269.666L921.982 269.068L922.078 267.442L921.266 266.701L921.624 265.745L923.415 266.414L927.332 269.929L929.815 270.383L930.699 271.602L932.346 276.24L933.325 276.503L934.113 278.702L932.657 278.344L931.415 277.077L930.364 276.575L929.099 277.1L927.188 279.467L928.788 283.77L931.917 287.046L933.779 288.337L936.549 289.317L939.988 291.994L941.397 293.787L941.134 295.843L942.042 299.286L943.331 300.385L944.334 303.685L945.815 306.29L947.295 307.701L946.961 312.984L949.325 321.447L951.116 325.798L952.764 328.165L953.886 329.073L953.958 331.918L953.17 333.113L954.913 332.229L956.298 331.081L956.943 330.006L961.002 335.05ZM1041.48 426.325L1040.36 426.086L1039.3 424.675L1037.9 419.536L1039.28 416.141L1041.02 413.248L1041 410.786L1040.64 410.164L1041.72 407.917L1044.42 405.741L1045.61 403.399L1045.82 402.132L1045.56 401.151L1044.01 398.617L1043.51 398.33L1044.49 396.514L1046.71 395.055L1046.92 400.888L1047.52 402.203L1048.76 403.016L1049.02 404.02L1042.7 418.938L1041.55 422.691L1041.93 425.01L1041.48 426.325ZM680.269 175.809L680.006 174.231L680.699 171.481L682.179 169.426L684.353 167.776L688.842 167.226L690.251 166.461L695.242 167.274L695.385 168.852L694.263 169.378L692.567 169.736L691.445 168.828L689.057 169.784L689.439 170.621L687.839 173.274L684.95 174.374L681.2 175.067L680.269 175.809ZM993.408 369.188L991.999 367.874L990.996 365.65L989.252 364.072L988.249 361.825L988.011 359.865L989.157 359.602L992.787 361.897L993.288 362.734L994.96 365.937L995.27 368.137L994.578 368.973L993.408 369.188ZM865.411 222.713L863.62 222.02L863.118 219.534L861.972 217.98L860.778 217.406L860.133 216.211L861.208 215.948L864.885 217.669L867.035 220.777L866.27 222.259L865.411 222.713ZM1049.91 482.266L1049.45 481.262L1049.6 478.776L1050.6 473.086L1051.6 472.847L1053.39 473.158L1051.67 478.848L1051.13 482.123L1049.91 482.266ZM1050.39 471.556L1048.67 466.727V462.806L1050.89 461.587L1051.46 462.017L1050.12 467.086L1050.39 471.556ZM758.954 16.6628L757.33 15.348L757.21 13.6984L758.763 12.6705L759.837 12.4553L761.103 14.3678L760.936 15.348L759.694 15.6588L758.954 16.6628ZM761.461 3.41863L759.67 2.65362L759.121 1.79299L760.124 0.262972L761.557 0L762.416 0.406411L763.013 1.4583L761.461 3.41863ZM687.529 186.184L686.788 184.63L689.439 182.144L690.776 183.1L691.206 185.084L688.149 185.013L687.529 186.184Z" fill="#475C67"/>
    <path class="alice_springs" fill="red" d="M650.491 315.411V432.158H440.514L417.327 432.326L417.215 242.854H417.933L429.598 238.196C433.559 236.68 442.712 232.609 446.784 231.681C453.981 230.734 460.808 231.284 468.739 231.681C470.175 231.752 471.651 231.826 473.176 231.895C481.138 232.253 490.211 232.789 493.753 233.013V236.927C493.753 237.639 493.718 239.231 493.672 241.327C493.517 248.451 493.602 261.029 494.121 265.176C494.721 269.979 501.11 271.339 505.692 272.203C506.231 272.304 507.191 272.439 507.65 272.533C510.866 272.824 517.247 273.097 523.751 272.903C527.395 272.795 530.725 272.717 533.258 272.717C535.157 272.717 537.21 272.657 538.873 272.649C545.453 272.384 550.859 272.717 562.405 274.351C579.007 276.699 592.548 285.223 598.894 288.765C599.304 288.994 599.671 289.198 599.99 289.375C605.246 292.283 623.818 301.5 636.111 306.82C645.262 310.294 649.384 313.842 650.491 315.411Z" fill="white" fill-opacity="0.4"/>
    <path class="tenant_creek" d="M650.491 219.194V315.326C647.906 312.193 640.226 308.703 629.704 303.922C619.536 299.302 606.714 293.475 593.272 285.599C569.747 271.815 546.159 272.383 527.289 272.837C522.407 272.954 517.841 273.064 513.673 272.916C494.801 272.245 494.352 267.359 494.09 264.505C494.071 264.293 494.052 264.091 494.027 263.904C493.739 261.741 493.426 242.335 493.306 232.903V191.538C493.306 181.254 494.132 180.809 496.676 179.438C496.919 179.307 497.177 179.168 497.452 179.011C500.606 177.209 506.103 175.316 517.999 172.883C529.895 170.45 536.94 169.976 543.957 170.739C546.741 171.042 549.463 171.072 552.62 171.107C555.56 171.139 558.877 171.176 562.969 171.441C568.938 171.827 574.261 173.998 579.975 176.327C582.188 177.229 584.46 178.155 586.851 179.011C592.071 180.879 599.971 186.098 608.305 191.603C613.639 195.126 619.151 198.767 624.251 201.721C634.512 207.666 645.844 215.717 650.491 219.194Z" fill="white"/>
    <path class="kakadu" d="M417.215 243.332L417.184 125.151L419.5 125.916L421.983 128.067L421.697 132.944L422.127 133.47L423.822 131.366L422.843 124.888L423.13 124.29L425.804 125.031L429.147 126.729L434.497 132.705L434.712 133.996L436.144 133.446L434.377 131.127L433.422 129.143L433.088 127.159L433.661 126.035L433.947 124.242L437.935 124.936L439.583 124.386L441.661 122.378L437.028 123.836L434.688 122.33L432.825 119.891L432.395 118.648L433.35 118.17L435.404 117.955L437.1 116.76L437.195 116.186L436.434 116.442C436.554 116.378 436.668 116.312 436.777 116.242C439.237 114.66 441.346 114.045 452.771 111.145C464.195 108.245 469.732 106.663 483.353 100.336C494.251 95.274 499.553 90.2003 500.842 88.2962C503.625 88.97 510.544 90.7569 515.957 92.5145C522.724 94.7115 527.03 96.7328 531.6 99.3692C535.467 101.6 539.711 102.321 546.037 103.395C547.187 103.59 548.406 103.797 549.704 104.027C550.988 104.254 552.062 104.451 553.003 104.624C558.248 105.585 559.371 105.79 569.653 106.312C578.901 106.781 587.926 108.831 591.795 109.935L588.833 113.771L586.732 117.405L586.684 119.341L583.436 121.541L582.385 121.517L583.985 126.155L585.084 127.804L586.803 129.263L590.123 130.458L594.827 133.47L597.239 135.67L604.188 139.279L604.928 139.925L605.549 143.2L606.982 144.874L613.429 147.958L616.08 150.157L618.492 152.787L625.345 153.074L628.092 154.508L634.109 158.787L637.19 160.102L638.623 160.054L641.297 160.939L643.661 162.11L646.814 167.131L650.491 170.262V219.057C640.449 212.199 617.519 197.042 595.383 184.003C573.443 171.08 561.49 171.092 551.981 171.102C548.897 171.105 546.071 171.108 543.244 170.67C531.702 168.879 501.911 176.094 497.732 178.88C493.743 181.54 493.485 182.153 493.493 191.385C493.493 191.824 493.494 192.281 493.494 192.759V232.957H487.325C482.748 232.559 470.489 231.684 458.071 231.365C446.85 231.078 444.885 231.934 438.568 234.686C436.146 235.741 433.086 237.074 428.619 238.728C422.953 240.827 419.385 242.311 417.215 243.332Z" fill="white" fill-opacity="0.35"/>
    <path d="M624.51 149.679L625.99 150.778L626.325 150.755L626.993 149.057L626.014 145.878L624.844 144.419L623.363 145.878L622.886 147.264L624.51 149.679Z" fill="white" fill-opacity="0.35"/>
    <path d="M611.591 145.519L612.259 145.854L613.883 145.543L614.337 142.602L613.597 142.268L612.116 143.272L611.591 145.519Z" fill="white" fill-opacity="0.35"/>
    <path class="darwin" d="M501.07 88.3803C508.294 90.2815 523.108 94.6934 526.924 96.9333C527.289 97.1478 528.634 97.7984 528.992 98.0139C533.309 100.611 537.907 103.224 557.677 105.471C564.086 106.228 568.296 106.219 572.488 106.638C581.716 107.56 586.083 108.342 591.749 109.963L592.248 109.349L595.256 107.316L595.973 105.93L596.689 101.125L598.337 98.5906L599.149 95.8174L599.292 93.8332L598.17 95.1002L596.737 95.4588L595.734 94.909L594.612 91.586L595.089 88.5976L596.236 87.6414L596.928 86.0874L595.877 85.2746L595.806 84.5335L596.737 82.9318L598.456 81.5213L601.155 80.4694L602.42 80.9715L602.779 81.9994L603.829 81.9277L606.05 79.9913L607.077 77.2181L607.889 77.0269L608.295 77.4333L608.199 82.1429L610.301 81.4257L610.54 82.2624L612.354 79.5371L612.784 77.0269L612.808 74.4689L611.208 71.5045L611.471 69.7354L614.743 70.9546L615.34 67.7512L617.966 63.5197L619.495 61.7506L624.008 58.5949L621.357 55.009L618.73 53.6702L616.629 54.1961L616.486 54.6982L618.181 55.3198L618.253 55.8935L617.25 56.6107L616.08 56.6346L614.241 53.9571L612.617 49.3909L613.214 47.4067L610.325 47.9326L605.931 50.8731L603.232 53.5507L603.352 54.1961L604.928 54.8655L607.387 54.5547L608.08 55.4632L606.265 60.0772L604.88 61.1529L603.089 61.3203L602.731 60.6987L600.773 60.9139L599.698 61.6072L598.934 60.89L598.218 59.1209L600.295 56.1087L599.841 55.3198L597.931 56.2043L597.047 54.8655L599.244 52.0924L595.639 53.1443L593.513 54.8894L593.131 55.9652L591.818 56.539L590.6 55.3915L590.098 54.1483L590.218 53.3116L593.203 50.2516L592.104 48.9606L596.522 45.2073L597.31 43.9403L596.427 42.9123L595.471 42.8884L595.567 44.7292L592.271 47.3589L590.504 47.3111L588.116 47.9565L587.567 49.9408L587.83 50.5863L589.31 49.7017L589.907 50.0364L587.925 51.6382L584.081 52.0924L582.576 51.423L581.239 51.9967L579.639 53.5985L578.588 56.3238L578.731 56.8259L577.729 56.3716L574.911 56.1087L572.666 54.244L569.394 52.5466L566.815 48.9606L564.26 49.1041L562.35 50.5624L560.201 50.8253L557.741 50.6102L556.404 50.0603L552.177 50.6819L551.675 50.2755L551.317 48.1478L551.628 47.6458L548.117 44.9682L547.52 45.0639L546.756 46.0679L545.323 46.7373L543.461 45.9484L542.649 45.1834L542.529 44.5379L542.935 43.9163L544.726 42.8884L544.44 42.0755L541.622 41.5974L540.667 42.8884L538.159 44.251L536.894 44.6574L535.127 44.6096L531.449 43.0557L530.136 41.1432H528.846L527.389 42.1234L525.622 41.5974L524.667 40.8324L520.775 33.78L518.745 31.6045L517.623 31.5089L514.972 35.4773L513.778 36.4097L512.369 36.0989L508.262 30.8395L507.999 29.692L503.772 26.1538L502.101 27.0383L499.641 26.2016L498.733 26.4168L499.927 28.5684L501.05 32.0587L500.262 33.4931L499.259 33.3975L497.301 28.7596L494.554 26.0582L491.689 27.373L488.847 30.7678L489.014 31.0546L491.45 30.8395L494.172 32.2978L494.674 34.019L497.181 36.5292L497.683 36.577L500.883 34.8558L504.584 34.2342L506.542 34.5928L507.617 35.2622L508.93 37.1269L512.847 40.0435L511.39 42.3385L511.199 49.9169L511.485 51.1361L513.324 52.4988L514.327 52.6183L512.608 52.7618L509.885 51.7577L506.423 53.0008L505.921 53.9332L506.447 57.0171L506.256 57.6387L504.847 59.0731L505.73 57.1606L504.274 54.3874L502.695 54.3556C502.841 56.121 502.908 58.4905 502.873 59.6204C502.818 61.3757 502.502 67.1549 502.118 68.3616C501.734 69.5683 500.923 72.678 500.923 76.2433C500.923 77.3891 500.951 78.6794 500.923 80.3728C500.864 83.9486 500.892 88.3333 501.07 88.3803Z" fill="white" fill-opacity="0.45"/>
    <path d="M622.623 106.049L622.217 106.719L621.262 107.603L617.799 107.077L617.059 106.432L617.011 103.97L618.611 100.407L619.972 99.5229L622.527 96.8932L622.336 95.913L621.572 95.3632L620.713 95.6022L620.235 96.2477L620.498 97.1562L619.638 98.0646L617.178 97.6343L616.223 94.8611L617.226 94.1679L617.417 92.9486L616.295 92.8769L614.122 94.6938L614.862 96.3672L614.026 97.0127L610.516 97.6821L609.775 98.9492L609.178 101.172L609.37 103.133L608.462 107.699L615.053 109.349L618.133 108.894L621.715 109.851L623.077 109.325L623.745 105.978L622.623 106.049Z" fill="white" fill-opacity="0.45"/>
    <path d="M611.805 33.4692L611.71 34.6884L612.641 34.5928L613.214 34.0669L617.441 28.138L618.707 23.2611L617.536 23.8827L615.316 28.3771L611.805 33.4692Z" fill="white" fill-opacity="0.45"/>
    <path d="M508.739 28.4249L509.647 30.9351L510.411 31.7479L511.151 29.9549L511.199 27.373L509.957 23.285L507.975 24.05L508.739 28.4249Z" fill="white" fill-opacity="0.45"/>
    <path d="M603.949 97.2757L603.877 98.232L604.88 97.8495L605.74 96.4629L606.098 94.7655L604.952 93.2116L603.853 93.0203L601.585 94.8133L601.346 97.0366L601.752 97.5387H602.85L602.444 96.2716L603.113 95.8174L603.949 97.2757Z" fill="white" fill-opacity="0.45"/>
    <path d="M603.399 39.6371V40.8563L608.319 38.2744L610.922 36.2902L611.16 34.9753L607.722 37.6528L605.764 37.7485L603.399 39.6371Z" fill="white" fill-opacity="0.45"/>
    <path d="M436.773 116.336C437.674 115.792 438.615 115.351 439.337 114.918C440.448 114.457 444.712 113.263 450.405 111.795C458.332 109.75 468.5 106.979 474.053 104.746C484.992 100.559 500.704 91.1615 501.015 88.2579C501.114 87.339 501.067 85.8489 501.009 84.021C500.885 80.0728 500.711 74.5486 501.845 69.7995C503.14 64.3733 502.96 57.3856 502.694 54.3551L500.739 54.3157L496.56 57.1845L493.17 56.1087L481.803 56.8737L480.346 56.6585L477.958 54.9373L474.567 54.7699L471.988 53.0965L469.672 52.9769L469.003 53.9571L469.719 55.3676L469.982 57.6387L469.743 58.4754L466.09 58.3559L465.087 58.8579L464.275 60.7466L467.857 63.1611L466.376 65.0497V65.9104L463.081 60.3401L459.403 59.1687L458.138 59.6947L458.926 60.2923L458.735 62.3961L458.042 64.0935L458.782 66.8905L460.979 67.536L458.687 67.7034L456.299 64.978L452.287 66.771L452.024 67.6555L452.263 71.1698L451.594 72.6281L449.923 73.8234L448.944 74.0386L448.18 73.68L447.821 73.0106L446.747 73.4887L446.317 74.6602L446.078 79.3458L446.293 79.9196L447.177 80.1108L448.06 80.8519L449.684 83.0753L449.947 84.0554L447.344 86.8047L444.168 88.9563L441.66 89.4105L440.753 88.8845L440.514 87.2111L438.675 89.1236L437.457 93.9288L437.601 95.148L436.192 101.794L429.959 105.715L428.359 107.842L426.807 110.807L426.497 112.934L429.004 115.325L431.201 116.592L434.305 117.166L436.773 116.336Z" fill="#75858D"/>
    <path d="M465.469 45.3029L468 47.4067L472.394 44.1076L475.594 42.0517L476.43 41.9321L483.044 34.9753L482.829 32.9911L479.964 29.2139L476.167 27.6838L474.448 29.0465L474.137 30.3614L475.021 32.5847L474.901 33.2541L473.564 31.3415L473.039 29.5485L472.251 29.6203L469.218 31.9631L466.496 30.7917L465.087 32.1065L461.457 32.9672L458.042 31.8914L456.967 30.1462L453.362 26.9905L452.812 27.4209L452.621 29.3573L454.006 34.4972L455.941 39.5893L460.717 43.3426L465.469 45.3029Z" fill="#75858D"/>
    <path d="M451.618 43.1035L455.917 44.7531L459.069 44.3706L459.666 43.0557L457.732 41.3106L455.893 40.8324L452.072 31.2698L449.78 31.7479L447.654 35.4535L448.084 36.5771L448.156 40.2348L447.201 41.1671L446.221 41.1193L445.027 40.4021L443.595 43.0079L443.786 43.7012L444.192 44.3467L445.624 44.6336L451.618 43.1035Z" fill="#75858D"/>
</svg>
