<svg width="93" height="92" viewBox="0 0 93 92" fill="none" xmlns="http://www.w3.org/2000/svg">
    <g id="figma-car.svg">
        <g id="Icons">
            <g id="Artboard">
                <g id="figma-car">
                    <path id="Shape"
                        d="M80.7882 51.1H79.1842V46.2424C79.181 45.4544 78.8948 44.694 78.3773 44.1001C77.8598 43.5063 77.1459 43.118 76.3662 43.0067L67.537 41.7804C67.3659 41.7569 67.2026 41.6939 67.06 41.5964C66.9174 41.4993 66.7991 41.3701 66.7154 41.2192L61.3334 31.6019C61.0491 31.0964 60.6351 30.6755 60.1347 30.382C59.6342 30.089 59.0642 29.9344 58.4842 29.9335H49.9558V28.1855C49.9544 27.404 49.643 26.6551 49.0901 26.1026C48.5367 25.5502 47.7873 25.2392 47.0058 25.2388H28.0998C27.3173 25.2392 26.5671 25.5502 26.0136 26.1036C25.46 26.6565 25.1482 27.4063 25.1466 28.1887V29.9427H21.7334C20.868 29.9437 20.0382 30.2877 19.4259 30.8991C18.8137 31.5109 18.469 32.3402 18.4674 33.206V34.8463H15.1953C14.4131 34.8472 13.6632 35.1582 13.1101 35.7116C12.557 36.2645 12.2459 37.0143 12.2451 37.7968V45.9507C12.2459 46.7341 12.5573 47.4844 13.111 48.0382C13.6647 48.592 14.4154 48.9035 15.1983 48.9039H18.4674V51.1H16.6581C16.3734 51.1 16.1004 51.2131 15.8991 51.4141C15.6978 51.6156 15.5847 51.8884 15.5847 52.1731V57.7792C15.5847 58.0639 15.6978 58.3367 15.8991 58.5382C16.1004 58.7392 16.3734 58.8523 16.6581 58.8523H22.1443C22.5117 61.0746 23.6562 63.0945 25.374 64.5517C27.0918 66.009 29.271 66.8085 31.5236 66.8085C33.7762 66.8085 35.9557 66.009 37.6733 64.5517C39.3914 63.0945 40.5359 61.0746 40.903 58.8523H55.623C55.9905 61.0746 57.135 63.0945 58.8526 64.5517C60.5707 66.009 62.7498 66.8085 65.0024 66.8085C67.255 66.8085 69.4345 66.009 71.1521 64.5517C72.8702 63.0945 74.0147 61.0746 74.3818 58.8523H80.8006C81.0854 58.8523 81.3581 58.7392 81.5596 58.5382C81.7606 58.3367 81.8738 58.0639 81.8738 57.7792V52.1731C81.8738 52.031 81.8457 51.8907 81.791 51.7596C81.7363 51.6285 81.6562 51.5098 81.555 51.41C81.4543 51.3102 81.3342 51.2311 81.2027 51.1782C81.0711 51.1248 80.9303 51.0981 80.7882 51.1ZM27.2779 28.1887C27.2783 28.082 27.3 27.9758 27.3416 27.8773C27.3833 27.7789 27.4442 27.6896 27.5207 27.6151C27.5971 27.5401 27.6877 27.4813 27.7871 27.4422C27.8866 27.4026 27.9928 27.3833 28.0998 27.3851H47.021C47.2335 27.3851 47.4377 27.4693 47.5882 27.6197C47.7386 27.7697 47.8237 27.973 47.8246 28.1855V29.9427H27.2779V28.1887ZM21.7334 32.0895H58.4842C58.6829 32.0891 58.8779 32.142 59.0495 32.2423C59.2206 32.3426 59.3623 32.4865 59.4594 32.6599L64.8414 42.2772C65.0884 42.7169 65.4339 43.0937 65.8502 43.3784C66.2669 43.6627 66.7435 43.8476 67.2426 43.9175L76.0718 45.1443C76.3391 45.1821 76.5838 45.3146 76.7609 45.5179C76.9385 45.7212 77.0364 45.9815 77.0378 46.2516V51.1092H72.2598C71.3674 50.0535 70.2556 49.2048 69.0016 48.6229C67.7477 48.041 66.3819 47.7397 64.9996 47.7397C63.6169 47.7397 62.2511 48.041 60.9976 48.6229C59.7437 49.2048 58.6314 50.0535 57.739 51.1092H38.7842C37.8918 50.0516 36.7791 49.202 35.5247 48.6192C34.2698 48.0359 32.9027 47.7341 31.519 47.7341C30.1358 47.7341 28.7686 48.0359 27.5139 48.6192C26.259 49.202 25.1466 50.0516 24.2542 51.1092C24.2185 51.1059 24.1826 51.1059 24.1469 51.1092H20.6141V33.206C20.6149 32.9093 20.7332 32.6254 20.943 32.4161C21.1528 32.2068 21.4371 32.0895 21.7334 32.0895ZM55.4882 56.7055H41.0258C40.9582 55.5082 40.6638 54.3342 40.1578 53.2463H56.3562C55.8502 54.3342 55.5558 55.5082 55.4882 56.7055ZM15.1983 46.7576C14.9844 46.7576 14.7793 46.6725 14.628 46.5211C14.4768 46.3698 14.3918 46.1646 14.3918 45.9507V37.7968C14.3918 37.5833 14.4764 37.3791 14.6271 37.2287C14.7778 37.0778 14.9822 36.9931 15.1953 36.9931H18.4674V46.7576H15.1983ZM17.7314 53.2463H22.8865C22.3793 54.3338 22.0848 55.5077 22.0186 56.7055H17.7253L17.7314 53.2463ZM31.5314 64.6148C30.076 64.6148 28.6527 64.1828 27.4424 63.3741C26.2321 62.5655 25.2887 61.4159 24.7316 60.0713C24.1746 58.7263 24.0288 57.2465 24.3128 55.8186C24.5968 54.3913 25.2978 53.0798 26.3271 52.0503C27.3564 51.0208 28.6679 50.3198 30.0957 50.036C31.5231 49.7522 33.0029 49.898 34.348 50.455C35.693 51.0121 36.8421 51.9551 37.6512 53.1658C38.4599 54.3761 38.8914 55.7989 38.8914 57.2548C38.8863 59.2066 38.1085 61.0774 36.7271 62.4569C35.3457 63.8364 33.4744 64.612 31.5222 64.6148H31.5314ZM64.9978 64.6148C63.5423 64.6148 62.1191 64.1828 60.9088 63.3741C59.6986 62.5655 58.7551 61.4159 58.1981 60.0713C57.641 58.7263 57.4952 57.2465 57.7795 55.8186C58.0633 54.3913 58.7643 53.0798 59.7938 52.0503C60.8228 51.0208 62.1343 50.3198 63.5621 50.036C64.99 49.7522 66.4698 49.898 67.8144 50.455C69.1594 51.0121 70.3089 51.9551 71.1176 53.1658C71.9263 54.3761 72.3578 55.7989 72.3578 57.2548C72.3532 59.2066 71.5749 61.0774 70.1935 62.4569C68.8126 63.8364 66.9408 64.612 64.9886 64.6148H64.9978ZM79.7178 56.7055H74.5046C74.437 55.5082 74.1426 54.3342 73.6366 53.2463H79.727L79.7178 56.7055Z"
                        fill="white" />
                    <path id="Shape_2"
                        d="M23.7452 44.0004H42.6603C42.8015 44.0013 42.9409 43.9747 43.0715 43.9213C43.2021 43.8679 43.3208 43.7897 43.4211 43.6904C43.5214 43.5915 43.601 43.4737 43.6557 43.3435C43.7104 43.2138 43.739 43.0744 43.7399 42.9332V35.2209C43.7403 35.0796 43.7127 34.9398 43.6589 34.8096C43.6051 34.679 43.526 34.5608 43.4262 34.4609C43.3268 34.3611 43.2081 34.282 43.0779 34.2282C42.9473 34.1744 42.8075 34.1472 42.6667 34.1472H23.7452C23.4605 34.1472 23.1875 34.2604 22.9862 34.4619C22.7849 34.6629 22.6719 34.9361 22.6719 35.2209V42.9332C22.6735 43.217 22.7873 43.4884 22.9884 43.6885C23.1895 43.8882 23.4616 44.0004 23.7452 44.0004ZM24.8185 36.294H41.5931V41.8541H24.8185V36.294Z"
                        fill="white" />
                    <path id="Shape_3"
                        d="M47.0852 44.0004H61.5844C61.7698 44.0004 61.9515 43.9526 62.1125 43.8615C62.2739 43.7704 62.4083 43.6389 62.5039 43.4802C62.5992 43.3215 62.652 43.1411 62.6571 42.9562C62.6617 42.7708 62.6189 42.5878 62.532 42.4245L58.4596 34.7176C58.3681 34.5451 58.231 34.4007 58.0635 34.3004C57.8961 34.1997 57.7043 34.1468 57.5088 34.1472H47.0824C46.7977 34.1472 46.5244 34.2604 46.3234 34.4619C46.1219 34.6629 46.0088 34.9361 46.0088 35.2209V42.9332C46.0106 43.2175 46.1247 43.4894 46.3266 43.6895C46.5281 43.8896 46.8014 44.0013 47.0852 44.0004ZM48.1588 36.294H56.8648L59.8028 41.8541H48.1496L48.1588 36.294Z"
                        fill="white" />
                    <path id="Shape_4"
                        d="M31.5222 52.532C30.5898 52.5315 29.6781 52.8075 28.9025 53.325C28.1269 53.8425 27.5226 54.5785 27.1653 55.4396C26.8081 56.3008 26.7143 57.2488 26.8959 58.1633C27.0774 59.0778 27.5261 59.9177 28.1849 60.5774C28.8441 61.237 29.684 61.686 30.5985 61.8681C31.513 62.0503 32.4606 61.9569 33.3222 61.6004C34.1838 61.2439 34.9198 60.6395 35.4382 59.8644C35.9562 59.0893 36.2326 58.178 36.2326 57.2456C36.2308 55.9962 35.7344 54.7989 34.8512 53.9152C33.9685 53.032 32.7711 52.5343 31.5222 52.532ZM31.5222 60.1004C30.9569 60.1004 30.4039 59.9329 29.9338 59.6187C29.4637 59.3046 29.0976 58.8579 28.8814 58.3353C28.6652 57.8132 28.6086 57.2382 28.7194 56.6835C28.8298 56.1292 29.1022 55.62 29.5024 55.2202C29.9021 54.8209 30.4118 54.5486 30.9665 54.4387C31.5213 54.3287 32.0958 54.3858 32.6179 54.6029C33.1405 54.8196 33.5862 55.1862 33.9 55.6568C34.2137 56.1273 34.3811 56.6803 34.3802 57.2456C34.3802 58.0037 34.0793 58.7309 33.5435 59.2678C33.0076 59.8041 32.2803 60.1059 31.5222 60.1068V60.1004Z"
                        fill="white" />
                    <path id="Shape_5"
                        d="M64.9888 52.532C64.0569 52.532 63.1456 52.8084 62.37 53.3264C61.5949 53.8444 60.991 54.5804 60.6345 55.4419C60.2775 56.3031 60.1841 57.2507 60.3658 58.1651C60.548 59.0792 60.9969 59.9191 61.6561 60.5783C62.3153 61.2375 63.1553 61.6864 64.0693 61.8686C64.9838 62.0503 65.9314 61.9569 66.7925 61.6C67.6541 61.2435 68.3901 60.6395 68.908 59.8639C69.426 59.0888 69.7024 58.1776 69.7024 57.2456C69.7006 55.9958 69.2038 54.7979 68.3201 53.9143C67.4365 53.0306 66.2386 52.5338 64.9888 52.532ZM64.9888 60.1004C64.4235 60.1004 63.8706 59.9329 63.4009 59.6187C62.9308 59.3046 62.5642 58.8579 62.348 58.3353C62.1318 57.8132 62.0752 57.2382 62.186 56.6835C62.2964 56.1292 62.5688 55.62 62.969 55.2202C63.3692 54.8209 63.8784 54.5486 64.4331 54.4387C64.9879 54.3287 65.5624 54.3858 66.085 54.6029C66.6071 54.8196 67.0533 55.1862 67.367 55.6568C67.6807 56.1273 67.8477 56.6803 67.8473 57.2456C67.8473 58.0037 67.546 58.7309 67.0101 59.2678C66.4742 59.8041 65.7474 60.1059 64.9888 60.1068V60.1004Z"
                        fill="white" />
                </g>
            </g>
        </g>
    </g>
</svg>