<svg width="58" height="60" viewBox="0 0 58 60" fill="none" xmlns="http://www.w3.org/2000/svg">
    <g id="aborigin" clip-path="url(#clip0_1618_9456)">
        <path id="Vector"
            d="M51.9297 5.15886H7.2168V1.6601C7.15615 0.112717 4.9839 0.113883 4.92383 1.6601V58.34C4.98448 59.8873 7.15672 59.8862 7.2168 58.34V35.4814H51.9297C52.5629 35.4814 53.0762 34.9592 53.0762 34.3152V6.32511C53.0762 5.6811 52.5629 5.15886 51.9297 5.15886ZM50.7832 7.49136V19.1539H39.2551C37.5817 6.78065 20.4138 6.78974 18.7451 19.1539H7.2168V7.49136H50.7832ZM37.0254 20.3201C37.0254 24.8216 33.4252 28.4839 29 28.4839C18.3533 28.0355 18.3564 12.6032 29.0001 12.1564C33.4252 12.1564 37.0254 15.8188 37.0254 20.3201ZM7.2168 33.1489V21.4864H18.7451C20.4185 33.8596 37.5864 33.8505 39.2551 21.4864H50.7832V33.1489H7.2168Z"
            fill="black" />
    </g>
    <defs>
        <clipPath id="clip0_1618_9456">
            <rect width="58" height="59" fill="white" transform="translate(0 0.5)" />
        </clipPath>
    </defs>
</svg>