<svg width="93" height="92" viewBox="0 0 93 92" fill="none" xmlns="http://www.w3.org/2000/svg">
    <g id="faq-getting-here.svg">
        <g id="Group">
            <path id="Vector" d="M20.731 75.3802L35.8742 60.2922L47.0292 71.415" stroke="white" stroke-width="2.3"
                stroke-linecap="round" stroke-linejoin="round" />
            <path id="Vector_2" d="M39.9131 64.1194L42.7973 61.249L56.0223 74.4234" stroke="white" stroke-width="2.3"
                stroke-linecap="round" stroke-linejoin="round" />
            <path id="Vector_3"
                d="M42.5996 67.5281L40.3962 69.7315L38.1928 67.5281L35.9894 69.7315L33.786 67.5281L31.5872 69.7315L29.3838 67.5281"
                stroke="white" stroke-width="2.3" stroke-linecap="round" stroke-linejoin="round" />
        </g>
        <path id="Vector_4"
            d="M51.3114 68.9541H68.98C71.6434 68.9541 73.7962 66.8841 73.7962 64.3265C73.7962 62.3071 72.4484 60.5959 70.5716 59.9657C70.5762 59.8783 70.5854 59.7909 70.5854 59.7035C70.5854 56.2949 67.7104 53.5349 64.1592 53.5349C61.1094 53.5349 58.561 55.5773 57.9032 58.3097C57.204 57.7439 56.3116 57.3897 55.3272 57.3897C53.11 57.3897 51.3114 59.1147 51.3114 61.2445C51.3114 61.7919 51.4356 62.3117 51.6518 62.7855H51.3114C49.5358 62.7855 48.1006 64.1655 48.1006 65.8675"
            stroke="white" stroke-width="2.3" stroke-linecap="round" stroke-linejoin="round" />
        <path id="Vector_5" d="M14.5762 75.3572H78.3552" stroke="white" stroke-width="2.3" stroke-linecap="round"
            stroke-linejoin="round" />
        <g id="Group_2">
            <path id="Vector_6"
                d="M52.4433 41.538H68.7687C68.7687 41.538 75.3835 41.8186 78.0699 40.917C80.3147 40.1626 79.6431 37.5038 77.3753 36.1836C74.6291 31.1834 62.8715 32.5772 62.8715 32.5772H52.6963C52.4341 32.5772 52.1811 32.4576 52.0155 32.2552L50.5481 30.452C50.0835 29.8816 50.4883 29.0214 51.2289 29.0214H52.2547C52.7377 29.0214 53.1333 28.6304 53.1333 28.1428V25.9946C53.1333 25.5116 52.7423 25.116 52.2547 25.116H46.0723C45.8285 25.116 45.5939 25.0148 45.4283 24.8308L38.1327 16.9004C37.9671 16.721 37.7325 16.6152 37.4887 16.6152H33.7765C33.1739 16.6152 32.7507 17.2132 32.9485 17.7836L37.7463 31.3996C37.9487 31.97 37.5255 32.568 36.9183 32.568H26.8719C26.5683 32.568 26.2877 32.4116 26.1267 32.154L19.7051 21.781C19.5441 21.5234 19.2635 21.367 18.9599 21.367H14.4243C13.9643 21.367 13.5779 21.7258 13.5503 22.1858L14.4519 31.1144C14.4519 31.1144 13.9183 33.7962 17.1199 36.7172C19.0841 38.5112 28.7855 40.1488 37.1575 40.8618L52.4387 41.538H52.4433Z"
                stroke="white" stroke-width="2.3" stroke-linecap="round" stroke-linejoin="round" />
            <path id="Vector_7" d="M46.1182 41.814V44.068" stroke="white" stroke-width="2.3" stroke-linecap="round"
                stroke-linejoin="round" />
            <path id="Vector_8"
                d="M46.1184 47.6009C47.094 47.6009 47.8849 46.8101 47.8849 45.8345C47.8849 44.859 47.094 44.0681 46.1184 44.0681C45.1429 44.0681 44.3521 44.859 44.3521 45.8345C44.3521 46.8101 45.1429 47.6009 46.1184 47.6009Z"
                stroke="white" stroke-width="2.3" stroke-linecap="round" stroke-linejoin="round" />
            <path id="Vector_9"
                d="M52.0154 32.2506C53.0872 33.534 52.4156 35.4522 50.6952 35.4522H40.635C39.8346 35.4522 39.1124 34.9692 38.8134 34.2286L37.5576 30.866"
                stroke="white" stroke-width="2.3" stroke-linecap="round" stroke-linejoin="round" />
            <path id="Vector_10" d="M58.5659 35.926V36.6022" stroke="white" stroke-width="2.3" stroke-linecap="round"
                stroke-linejoin="round" />
            <path id="Vector_11" d="M61.5376 35.926V36.6022" stroke="white" stroke-width="2.3" stroke-linecap="round"
                stroke-linejoin="round" />
            <path id="Vector_12" d="M64.5093 35.926V36.6022" stroke="white" stroke-width="2.3" stroke-linecap="round"
                stroke-linejoin="round" />
            <path id="Vector_13" d="M67.4805 35.926V36.6022" stroke="white" stroke-width="2.3" stroke-linecap="round"
                stroke-linejoin="round" />
            <path id="Vector_14" d="M77.1268 35.8433H73.7734" stroke="white" stroke-width="2.3" stroke-linecap="round"
                stroke-linejoin="round" />
        </g>
    </g>
</svg>