<svg width="93" height="92" viewBox="0 0 93 92" fill="none" xmlns="http://www.w3.org/2000/svg">
    <g id="figma-sun.svg">
        <g id="Icons">
            <g id="Artboard">
                <g id="figma-sun">
                    <path id="Shape"
                        d="M46.7703 61.4802C43.7086 61.4802 40.7153 60.5727 38.1697 58.8716C35.6241 57.1705 33.6396 54.7527 32.468 51.9242C31.2964 49.0952 30.9896 45.9828 31.5871 42.98C32.1846 39.9766 33.6589 37.2185 35.8237 35.0537C37.9889 32.8885 40.7471 31.4142 43.75 30.8166C46.7528 30.2196 49.8657 30.5259 52.6942 31.6975C55.5232 32.8696 57.941 34.8536 59.6416 37.3992C61.3427 39.9449 62.2507 42.9381 62.2507 45.9999C62.2456 50.104 60.6131 54.0388 57.711 56.941C54.8093 59.8431 50.8744 61.4756 46.7703 61.4802ZM46.7703 32.7486C44.1492 32.7482 41.587 33.5247 39.4076 34.9806C37.2281 36.436 35.5288 38.5055 34.5256 40.927C33.5223 43.348 33.2592 46.0123 33.7703 48.5832C34.2813 51.1537 35.5431 53.5153 37.396 55.3687C39.2493 57.222 41.6105 58.4847 44.181 58.9962C46.7515 59.5078 49.4158 59.2456 51.8372 58.2428C54.2587 57.2395 56.3287 55.5412 57.7846 53.3622C59.2409 51.1827 60.0183 48.6209 60.0183 45.9999C60.0142 42.4873 58.6172 39.1196 56.1336 36.6356C53.6501 34.1516 50.2829 32.7537 46.7703 32.7486Z"
                        fill="white" />
                    <path id="Path"
                        d="M46.5002 26.3059C46.204 26.3059 45.9201 26.1882 45.7108 25.9789C45.5015 25.7696 45.3838 25.4857 45.3838 25.1895V17.9399C45.3838 17.6437 45.5015 17.3598 45.7108 17.1505C45.9201 16.9412 46.204 16.8235 46.5002 16.8235C46.7964 16.8235 47.0803 16.9412 47.2896 17.1505C47.4989 17.3598 47.6166 17.6437 47.6166 17.9399V25.1895C47.6166 25.4857 47.4989 25.7696 47.2896 25.9789C47.0803 26.1882 46.7964 26.3059 46.5002 26.3059Z"
                        fill="white" />
                    <path id="Path_2"
                        d="M46.5002 75.1763C46.204 75.1763 45.9201 75.0585 45.7108 74.8492C45.5015 74.6399 45.3838 74.3561 45.3838 74.0599V66.8103C45.3838 66.514 45.5015 66.2302 45.7108 66.0209C45.9201 65.8116 46.204 65.6938 46.5002 65.6938C46.7964 65.6938 47.0803 65.8116 47.2896 66.0209C47.4989 66.2302 47.6166 66.514 47.6166 66.8103V74.0599C47.6166 74.3561 47.4989 74.6399 47.2896 74.8492C47.0803 75.0585 46.7964 75.1763 46.5002 75.1763Z"
                        fill="white" />
                    <path id="Path_3"
                        d="M25.6897 47.1164H18.4401C18.1439 47.1164 17.8601 46.9986 17.6508 46.7893C17.4415 46.58 17.3237 46.2962 17.3237 46C17.3237 45.7037 17.4415 45.4199 17.6508 45.2106C17.8601 45.0013 18.1439 44.8835 18.4401 44.8835H25.6897C25.986 44.8835 26.2698 45.0013 26.4791 45.2106C26.6884 45.4199 26.8062 45.7037 26.8062 46C26.8062 46.2962 26.6884 46.58 26.4791 46.7893C26.2698 46.9986 25.986 47.1164 25.6897 47.1164Z"
                        fill="white" />
                    <path id="Path_4"
                        d="M74.5604 47.1164H67.3108C67.0145 47.1164 66.7307 46.9986 66.5214 46.7893C66.3121 46.58 66.1943 46.2962 66.1943 46C66.1943 45.7037 66.3121 45.4199 66.5214 45.2106C66.7307 45.0013 67.0145 44.8835 67.3108 44.8835H74.5604C74.8566 44.8835 75.1404 45.0013 75.3497 45.2106C75.559 45.4199 75.6768 45.7037 75.6768 46C75.6768 46.2962 75.559 46.58 75.3497 46.7893C75.1404 46.9986 74.8566 47.1164 74.5604 47.1164Z"
                        fill="white" />
                    <path id="Path_5"
                        d="M22.1998 61.1464C21.9546 61.146 21.7159 61.065 21.5213 60.9155C21.3267 60.7655 21.1864 60.5562 21.1229 60.3189C21.0594 60.082 21.076 59.8304 21.1694 59.6036C21.2632 59.3768 21.4293 59.1873 21.6418 59.064L27.9194 55.4392C28.0464 55.3601 28.1881 55.3072 28.3357 55.2837C28.4838 55.2607 28.6347 55.2672 28.7801 55.3035C28.9254 55.3398 29.0621 55.4052 29.1817 55.4953C29.3008 55.5855 29.4011 55.6986 29.4761 55.8284C29.551 55.9576 29.5989 56.1011 29.6173 56.2497C29.6357 56.3983 29.6242 56.5492 29.5828 56.6932C29.5418 56.8371 29.4724 56.9715 29.3781 57.0878C29.2842 57.2042 29.1674 57.3008 29.0354 57.3712L22.7582 60.996C22.5885 61.0944 22.3957 61.1464 22.1998 61.1464Z"
                        fill="white" />
                    <path id="Path_6"
                        d="M64.5232 36.711C64.2775 36.7106 64.0392 36.6296 63.8442 36.4797C63.6496 36.3302 63.5098 36.1209 63.4463 35.8835C63.3828 35.6466 63.3989 35.395 63.4928 35.1682C63.5866 34.9414 63.7527 34.7514 63.9652 34.6286L70.2423 31.0038C70.4981 30.8672 70.7966 30.8355 71.0749 30.915C71.3532 30.9946 71.5901 31.1791 71.735 31.4298C71.8799 31.6809 71.9218 31.9781 71.8514 32.2592C71.781 32.5398 71.6044 32.7826 71.3588 32.9358L65.0811 36.5606C64.9114 36.6586 64.7191 36.7106 64.5232 36.711Z"
                        fill="white" />
                    <path id="Path_7"
                        d="M32.47 71.4163C32.274 71.4163 32.0818 71.3648 31.912 71.2668C31.7427 71.1688 31.6015 71.0276 31.504 70.8578C31.406 70.6881 31.3545 70.4958 31.3545 70.2999C31.3545 70.1039 31.406 69.9116 31.504 69.7419L35.1288 63.4799C35.282 63.2343 35.5249 63.0576 35.8055 62.9872C36.0865 62.9169 36.3837 62.9587 36.6348 63.1036C36.8855 63.2485 37.07 63.4854 37.1496 63.7637C37.2292 64.042 37.1974 64.3406 37.0608 64.5963L33.436 70.8583C33.3385 71.028 33.1977 71.1693 33.028 71.2672C32.8582 71.3652 32.666 71.4167 32.47 71.4163Z"
                        fill="white" />
                    <path id="Path_8"
                        d="M56.9055 29.0936C56.7096 29.0931 56.5173 29.0416 56.3476 28.9436C56.1783 28.8457 56.0371 28.7044 55.9395 28.5352C55.8416 28.3654 55.79 28.1727 55.79 27.9772C55.79 27.7812 55.8416 27.5885 55.9395 27.4192L59.5643 21.1416C59.6347 21.0096 59.7313 20.8932 59.8477 20.7989C59.9641 20.705 60.0984 20.6351 60.2424 20.5942C60.3864 20.5532 60.5372 20.5413 60.6858 20.5597C60.8344 20.5781 60.9779 20.6259 61.1072 20.7009C61.2369 20.7759 61.3501 20.8762 61.4402 20.9958C61.5304 21.1154 61.5957 21.2515 61.632 21.3969C61.6684 21.5422 61.6748 21.6931 61.6518 21.8412C61.6284 21.9889 61.5755 22.1306 61.4963 22.258L57.8715 28.5352C57.774 28.7049 57.6333 28.8461 57.4635 28.9441C57.2938 29.0421 57.1015 29.0936 56.9055 29.0936Z"
                        fill="white" />
                    <path id="Path_9"
                        d="M60.5302 71.4162C60.3343 71.4167 60.142 71.3652 59.9723 71.2672C59.8025 71.1692 59.6618 71.028 59.5642 70.8582L55.9394 64.5806C55.8603 64.4537 55.8074 64.312 55.784 64.1643C55.761 64.0162 55.7674 63.8653 55.8037 63.72C55.8401 63.5746 55.9054 63.438 55.9956 63.3184C56.0857 63.1992 56.1989 63.099 56.3286 63.024C56.4579 62.949 56.6014 62.9012 56.75 62.8828C56.8985 62.8644 57.0494 62.8759 57.1934 62.9173C57.3374 62.9582 57.4717 63.0277 57.5881 63.122C57.7045 63.2158 57.8011 63.3326 57.8714 63.4647L61.4962 69.7418C61.5942 69.9116 61.6457 70.1038 61.6457 70.2998C61.6457 70.4958 61.5942 70.688 61.4962 70.8578C61.3987 71.0275 61.2575 71.1687 61.0882 71.2667C60.9185 71.3647 60.7262 71.4162 60.5302 71.4162Z"
                        fill="white" />
                    <path id="Path_10"
                        d="M36.0952 29.0936C35.8992 29.0936 35.7069 29.0421 35.5372 28.9441C35.3675 28.8461 35.2267 28.7049 35.1292 28.5352L31.5044 22.258C31.4253 22.1306 31.3724 21.9889 31.3489 21.8412C31.3259 21.6931 31.3323 21.5422 31.3687 21.3969C31.405 21.2515 31.4703 21.1154 31.5605 20.9958C31.6507 20.8762 31.7638 20.7759 31.8935 20.7009C32.0228 20.6259 32.1663 20.5781 32.3149 20.5597C32.4635 20.5413 32.6144 20.5532 32.7583 20.5942C32.9023 20.6351 33.0366 20.705 33.153 20.7989C33.2694 20.8932 33.366 21.0096 33.4364 21.1416L37.0612 27.4192C37.1592 27.5885 37.2107 27.7812 37.2107 27.9772C37.2107 28.1727 37.1592 28.3654 37.0612 28.5352C36.9637 28.7044 36.8224 28.8457 36.6532 28.9436C36.4834 29.0416 36.2911 29.0931 36.0952 29.0936Z"
                        fill="white" />
                    <path id="Path_11"
                        d="M70.8004 61.1464C70.6044 61.1464 70.4117 61.0944 70.2419 60.996L63.98 57.3712C63.8479 57.3008 63.7316 57.2042 63.6373 57.0878C63.5434 56.9715 63.4735 56.8371 63.4325 56.6932C63.3916 56.5492 63.3797 56.3983 63.3981 56.2497C63.4165 56.1011 63.4643 55.9576 63.5393 55.8284C63.6143 55.6986 63.7145 55.5855 63.8341 55.4953C63.9537 55.4052 64.0899 55.3398 64.2352 55.3035C64.3806 55.2672 64.5315 55.2607 64.6796 55.2837C64.8273 55.3072 64.969 55.3601 65.0964 55.4392L71.3735 59.064C71.5861 59.1873 71.7521 59.3768 71.846 59.6036C71.9398 59.8304 71.9559 60.082 71.8924 60.3189C71.8289 60.5562 71.6891 60.7655 71.4945 60.9155C71.2995 61.065 71.0612 61.146 70.8156 61.1464H70.8004Z"
                        fill="white" />
                    <path id="Path_12"
                        d="M28.4774 36.711C28.2814 36.7106 28.0891 36.6586 27.9194 36.5606L21.6418 32.9358C21.3961 32.7826 21.2195 32.5398 21.1491 32.2592C21.0787 31.9781 21.1206 31.6809 21.2655 31.4298C21.4104 31.1791 21.6473 30.9946 21.9256 30.915C22.2039 30.8355 22.5024 30.8672 22.7582 31.0038L29.0354 34.6286C29.2479 34.7514 29.4139 34.9414 29.5078 35.1682C29.6016 35.395 29.6177 35.6466 29.5542 35.8835C29.4908 36.1209 29.3509 36.3302 29.1563 36.4797C28.9613 36.6296 28.723 36.7106 28.4774 36.711Z"
                        fill="white" />
                </g>
            </g>
        </g>
    </g>
</svg>