<svg id="logo-territory" viewBox="0 0 179 65" xmlns="http://www.w3.org/2000/svg" xmlns:xlink="http://www.w3.org/1999/xlink" version="2" fill="var(--header-text-color)">
    <g clip-path="url(#clip0_777_7189)">
        <path
            d="M154.303 56.7483C153.796 55.385 153.289 54.0021 152.782 52.6388C152.665 52.3077 152.295 52.1713 151.983 52.3466C150.422 53.1841 148.667 53.5931 146.6 53.5931C145.898 53.5931 146.444 54.3722 146.483 54.489C147.341 56.5925 148.199 58.7739 148.862 60.9942C149.642 63.5456 150.442 64.0715 152.646 63.8183C153.27 63.7599 154.264 63.8183 155.161 63.8183H155.551C156.019 63.8183 156.351 63.7209 156.487 63.5262C156.663 63.2924 156.565 62.9029 156.468 62.6302C155.766 60.6631 155.044 58.7154 154.303 56.7483ZM38.256 58.8323C38.2755 58.0338 37.9049 57.7027 37.1249 57.7027C35.6039 57.7027 34.0634 57.7221 32.5423 57.7221H31.0603C30.8653 57.7221 30.8848 57.7027 30.4948 57.7027C29.6368 57.7027 29.2663 58.0143 29.3053 58.8907C29.3443 60.1372 29.3443 61.4032 29.3053 62.6692C29.2857 63.4677 29.6563 63.7988 30.4363 63.7988C31.0213 63.7988 31.0408 63.7794 32.3668 63.7794C34.1414 63.7794 36.1694 63.7794 37.0664 63.7988C37.9244 63.8183 38.295 63.4872 38.256 62.6108C38.2169 61.3448 38.2365 60.0983 38.256 58.8323ZM21.5246 42.3941C21.5246 42.8615 21.5051 43.29 21.5051 44.2638C21.5051 45.0624 21.5051 45.8414 21.5051 46.64C21.5051 46.7568 21.5246 46.8932 21.5441 47.0685C21.5636 47.3217 21.8756 47.3996 22.0316 47.2243C23.3771 45.6856 24.9177 44.6144 26.6727 44.2444C27.3162 44.108 27.5502 43.8548 27.5697 43.2705V41.3424C27.5697 40.0569 27.8037 39.8232 29.1297 39.8232C32.3083 39.94 33.7318 39.8427 36.9104 39.8621C37.8464 39.8621 38.295 39.5505 38.2169 38.4988C38.139 37.3691 38.1194 36.2395 38.2169 35.1098C38.3145 34.0192 37.8464 33.766 36.9104 33.766C31.5088 33.7854 22.5776 33.7465 22.5776 33.7465C21.7001 33.7075 21.4856 34.0581 21.5051 34.8567C21.5246 37.2912 21.5246 39.7453 21.5246 42.1798C21.5246 42.2188 21.5246 42.2383 21.5246 42.2772V42.3941ZM34.3754 51.7428C35.3699 51.7623 35.7404 51.3144 35.5844 50.1458C35.4674 49.2304 35.4479 48.1592 35.5649 47.2632C35.7599 45.9778 35.3309 45.4909 34.2779 45.5103C33.3808 45.5103 32.4643 45.5103 31.5673 45.5103H29.7538C29.6953 45.5298 29.6173 45.5298 29.5588 45.5298C25.0737 45.5298 21.9731 48.5097 21.5246 53.0672C21.5246 56.2614 21.5051 59.475 21.5051 62.6692C21.5051 63.3703 22.0706 63.7988 22.5776 63.7988C22.5776 63.7988 24.5666 63.7988 26.4387 63.7988C27.0627 63.7988 27.5892 63.2924 27.5892 62.6497V56.7094C27.5697 56.573 27.5697 56.3977 27.5697 56.2224V53.0283C27.5697 52.2103 27.7842 51.7039 28.7397 51.7428H31.8988C32.7373 51.7234 33.5563 51.7234 34.3754 51.7428ZM133.418 39.94C132.151 35.4799 128.094 32.7142 123.434 33.1232C118.754 33.5322 115.146 36.8822 114.6 41.4787C114.522 42.063 114.522 44.517 114.522 46.9711C114.678 51.3144 116.901 54.528 120.372 55.7355C120.509 55.794 120.665 55.8524 120.801 55.8719C121.035 55.8913 120.762 55.4823 120.723 55.2876C120.684 55.0344 120.626 54.8201 120.626 54.5475C120.587 53.4763 120.645 52.405 120.606 51.3338V43.3484C120.626 41.3034 121.425 39.9595 122.888 39.3752C122.985 39.3363 123.044 39.3168 123.141 39.2973C123.2 39.2778 123.492 39.1999 123.531 39.1805C123.707 39.1415 123.882 39.122 124.077 39.122C124.116 39.122 124.253 39.122 124.272 39.122C124.448 39.122 124.623 39.1415 124.818 39.1805C124.857 39.1999 124.994 39.2389 125.033 39.2389C125.091 39.2584 125.15 39.2778 125.228 39.2973C125.286 39.3168 125.325 39.3363 125.462 39.3752C126.944 39.9206 127.743 41.3034 127.743 43.3484V54.4306C127.704 56.5341 126.378 57.9169 124.331 57.9753C124.136 57.9753 123.336 57.9559 123.2 57.9559C119.534 57.8195 116.55 56.0861 114.737 53.3204C114.425 52.853 114.522 53.4373 114.522 53.5152C114.522 53.671 114.522 54.3916 114.542 54.6059C114.561 55.1512 114.6 55.6771 114.659 56.1835C115.205 60.7994 118.793 64.052 123.453 64.461C128.114 64.87 132.17 62.1044 133.438 57.6442C133.886 56.0666 133.828 54.4306 133.828 52.814V44.8092C133.789 43.1342 133.867 41.5176 133.418 39.94ZM91.9602 49.094C91.9602 44.4976 91.9407 39.8037 91.9797 35.2072C91.9992 34.0971 91.6286 33.6686 90.5171 33.766C89.4641 33.8439 88.3136 33.8439 87.2606 33.766C86.1685 33.6881 85.8955 34.1555 85.8955 35.1683C85.9345 39.8621 85.915 44.6144 85.915 49.3083C85.915 54.08 85.9345 57.6832 85.8955 62.4549C85.8955 63.4483 86.2075 63.8378 87.202 63.7794C88.2551 63.7209 89.4056 63.7014 90.4586 63.7794C91.6482 63.8767 91.9797 63.3898 91.9797 62.2407C91.9212 57.4689 91.9602 53.8658 91.9602 49.094ZM106.741 51.6844C106.741 50.9248 106.741 44.8092 106.741 43.9912C106.741 43.9912 106.741 41.8293 106.741 41.7708C106.741 37.2912 103.758 34.1944 99.1948 33.7465H96.5038C95.3532 33.727 94.8657 34.0776 94.9632 35.2657C95.0412 36.3174 95.0412 37.4665 94.9632 38.5182C94.9047 39.531 95.2947 39.8427 96.2893 39.8232H99.4288C100.131 39.8232 100.618 39.979 100.696 40.6412C100.696 41.2644 100.696 41.8293 100.696 42.3551V44.1275C100.696 45.5298 100.696 46.9711 100.696 49.0745C100.696 49.503 100.696 49.9315 100.696 50.3405C100.696 54.5085 100.716 57.878 100.677 62.2212C100.657 63.3703 101.008 63.8573 102.198 63.7599C103.251 63.682 104.401 63.682 105.454 63.7599C106.468 63.8183 106.78 63.4288 106.761 62.4355C106.722 58.5012 106.722 55.3655 106.741 51.6844ZM112.787 35.2072C112.865 34.0971 112.436 33.727 111.344 33.7465C111.344 33.7465 109.004 33.766 108.029 33.766C107.229 33.766 106.449 33.766 105.649 33.766C105.532 33.766 105.396 33.7854 105.22 33.8049C104.967 33.8244 104.889 34.136 105.064 34.2918C106.605 35.6357 107.678 37.1744 108.048 38.9273C108.185 39.57 108.438 39.8037 109.023 39.8232H111.383C112.397 39.8232 112.865 39.5505 112.787 38.4598C112.728 37.4081 112.728 36.259 112.787 35.2072ZM166.452 41.9461C166.101 41.0307 165.613 40.0374 165.262 39.122C164.599 37.4276 164.131 36.629 163.488 34.8761C163.195 34.0776 162.766 33.7465 161.986 33.7465C161.928 33.7465 161.889 33.7465 161.83 33.7465C160.875 33.8049 159.276 33.7854 158.34 33.766C158.047 33.766 157.755 33.766 157.462 33.766H157.443C157.17 33.766 156.994 33.8049 156.897 33.9218C156.799 34.0192 156.741 34.1944 156.741 34.4282L156.799 34.6035C156.858 34.7787 156.936 34.993 157.014 35.2072C157.54 36.4343 158.047 37.6418 158.574 38.8688C159.841 41.8098 160.972 44.2833 162.201 47.3022C162.376 47.7307 162.571 47.9644 162.786 48.0423C163 48.1202 163.293 48.0423 163.722 47.7891C165.126 46.9711 167.017 43.4069 166.452 41.9461ZM178.074 34.0386C177.957 33.8633 177.587 33.7854 176.885 33.7854C176.534 33.7854 175.968 33.7854 175.617 33.8049C174.935 33.8244 173.882 33.8244 173.199 33.766C172.224 33.6881 171.736 34.0386 171.366 35.0319C170.079 38.3624 169.318 40.2906 167.583 44.556C166.998 45.9778 165.984 49.2888 163.605 49.951C163.488 49.9899 163.41 50.0484 163.371 50.1068C163.332 50.2042 163.371 50.3405 163.449 50.4769C164.502 52.1324 164.443 53.9437 164.404 55.6966C164.385 56.1835 164.385 56.7094 164.385 57.1963C164.424 59.066 164.424 60.9358 164.385 62.786C164.365 63.234 164.443 63.5067 164.599 63.6625C164.755 63.8183 165.009 63.8767 165.399 63.8573C165.925 63.8378 166.822 63.8183 167.407 63.8183C167.973 63.8183 168.792 63.8378 169.455 63.8573C169.825 63.8767 170.079 63.7988 170.235 63.6625C170.391 63.5067 170.449 63.2535 170.449 62.8834C170.43 61.7538 170.43 60.5852 170.43 59.2413C170.43 58.6181 170.43 57.9559 170.43 57.2158C170.43 53.7489 171.171 51.1391 172.555 48.1202C173.921 45.1403 175.208 41.4592 176.456 38.4793C176.904 37.3886 177.372 36.3174 177.821 35.2267C178.133 34.5645 178.191 34.2139 178.074 34.0386ZM6.19723 62.4549C6.19723 63.4483 6.50924 63.8378 7.50376 63.7794C8.55678 63.7209 9.70731 63.7014 10.7603 63.7794C11.9499 63.8767 12.2814 63.3898 12.2814 62.2407C12.2424 57.8974 12.2619 54.528 12.2619 50.36C12.2619 49.951 12.2619 49.5225 12.2619 49.094C12.2619 46.9906 12.2619 45.5298 12.2619 44.147V42.3746C12.2619 41.8293 12.2619 41.2644 12.2619 40.6607C12.3399 39.9985 12.8274 39.8232 13.5294 39.8427H16.669C17.6635 39.8427 18.0535 39.531 17.995 38.5377C17.9365 37.486 17.917 36.3369 17.995 35.2851C18.0925 34.0971 17.605 33.766 16.4545 33.766H13.7634C9.2003 34.1945 6.21673 37.3107 6.21673 41.7903C6.21673 41.8682 6.21673 44.0106 6.21673 44.0106C6.21673 44.8287 6.21673 50.9443 6.21673 51.7039C6.21673 55.3655 6.23623 58.5012 6.19723 62.4549ZM0.152092 38.4598C0.0740907 39.5505 0.542101 39.8232 1.55612 39.8232H3.91568C4.48119 39.8037 4.7542 39.5505 4.8907 38.9273C5.26121 37.1744 6.33373 35.6162 7.87427 34.2918C8.06927 34.136 7.97177 33.8244 7.71826 33.8049C7.54276 33.7854 7.42576 33.7854 7.28925 33.766C6.48974 33.766 5.70972 33.766 4.9102 33.766C3.93518 33.766 1.59512 33.7465 1.59512 33.7465C0.4836 33.727 0.0545903 34.0971 0.152092 35.2072C0.230094 36.259 0.230094 37.4081 0.152092 38.4598ZM154.069 48.6461C155.337 47.1853 156.058 45.374 156.058 43.4069C156.058 37.8755 152.529 33.7465 146.971 33.7465C146.971 33.7465 144.28 33.766 142.837 33.766C141.394 33.766 138.956 33.7465 138.956 33.7465C137.747 33.727 137.221 34.2724 137.26 35.4604C137.26 40.427 137.318 46.0557 137.318 46.0557C137.318 46.3478 137.221 46.6789 137.455 47.01C137.494 47.0685 137.572 47.0685 137.63 47.0295C139.483 45.1598 139.756 44.9845 142.622 44.1665C143.207 44.0106 143.383 43.738 143.383 43.1731C143.402 42.3551 143.402 41.6735 143.363 41.0502C143.285 40.1348 143.519 39.7842 144.514 39.8427C145.06 39.8621 146.132 39.8427 147.029 39.8427C148.667 39.8427 149.993 41.2644 149.993 42.8226C149.993 44.4781 148.589 45.822 147.068 45.822C147.068 45.822 146.347 45.8025 145.742 45.8025C145.138 45.8025 144.514 45.822 144.514 45.822C144.338 45.822 144.065 45.8025 144.065 45.8025C140.029 45.8025 137.318 48.7045 137.318 53.0283C137.299 56.5146 137.279 60.2736 137.26 62.4744C137.26 63.0198 137.338 63.3703 137.552 63.5456C137.747 63.7209 138.059 63.7988 138.566 63.7794C139.834 63.7014 140.965 63.7014 142.018 63.7794C142.525 63.8183 142.856 63.7599 143.051 63.5651C143.266 63.3703 143.344 63.0003 143.344 62.3965C143.305 58.2285 143.305 58.6375 143.324 54.528V53.1257C143.324 52.2492 143.714 51.8597 144.572 51.8986L146.99 51.8597C149.701 51.8597 151.963 50.8859 153.543 49.1914L154.069 48.6461ZM80.5329 56.7288C80.0259 55.3655 79.5189 53.9826 79.0119 52.6193C78.8949 52.2882 78.5244 52.1518 78.2123 52.3271C76.6523 53.1646 74.8973 53.5736 72.8302 53.5736C72.1282 53.5736 72.6742 54.3527 72.7132 54.4696C73.5712 56.573 74.4293 58.7544 75.0923 60.9747C75.8723 63.5262 76.6718 64.052 78.8754 63.7988C79.4994 63.7404 80.4939 63.7988 81.3909 63.7988H81.7809C82.2489 63.7988 82.5804 63.7014 82.7169 63.5067C82.8925 63.273 82.795 62.8834 82.6974 62.6108C81.9759 60.6436 81.2544 58.6765 80.5329 56.7288ZM80.2794 48.6071C81.5469 47.1464 82.2684 45.335 82.2684 43.3679C82.2684 37.8366 78.7389 33.7075 73.1812 33.7075C73.1812 33.7075 70.4902 33.727 69.0471 33.727C67.6041 33.727 65.1666 33.7075 65.1666 33.7075C63.9575 33.6881 63.431 34.2334 63.47 35.4215C63.47 40.388 63.5285 46.0167 63.5285 46.0167C63.5285 46.3089 63.431 46.64 63.665 46.9711C63.704 47.0295 63.782 47.0295 63.8405 46.9906C65.6931 45.1208 65.9661 44.9455 68.8326 44.1275C69.4176 43.9717 69.5932 43.699 69.5932 43.1342C69.6127 42.3162 69.6127 41.6345 69.5737 41.0112C69.4957 40.0958 69.7297 39.7453 70.7242 39.8037C71.2702 39.8232 72.3427 39.8037 73.2397 39.8037C74.8778 39.8037 76.2038 41.2255 76.2038 42.7836C76.2038 44.4391 74.7998 45.783 73.2787 45.783C73.2787 45.783 72.5572 45.7635 71.9527 45.7635C71.3482 45.7635 70.7242 45.783 70.7242 45.783C70.5487 45.783 70.2757 45.7635 70.2757 45.7635C66.2391 45.7635 63.5285 48.6655 63.5285 52.9893C63.509 56.4756 63.4895 60.2346 63.47 62.4355C63.47 62.9808 63.548 63.3314 63.7625 63.5067C63.9575 63.682 64.2695 63.7599 64.7765 63.7404C66.0441 63.6625 67.1751 63.6625 68.2281 63.7404C68.7351 63.7794 69.0666 63.7209 69.2616 63.5262C69.4762 63.3314 69.5542 62.9613 69.5542 62.3576C69.5152 58.1896 69.5152 58.5986 69.5347 54.489V53.1062C69.5347 52.2298 69.9247 51.8402 70.7827 51.8792L73.2007 51.8402C75.9113 51.8402 78.1733 50.8664 79.7529 49.1719L80.2794 48.6071Z"
        />
        <path
            d="M95.0999 11.699C95.0999 8.34906 95.1194 4.99909 95.0804 1.66859C95.0804 0.850578 95.2754 0.5 96.1529 0.538953C96.1529 0.538953 105.104 0.577907 110.505 0.55843C111.383 0.55843 111.851 0.792149 111.812 1.76598C111.753 2.97352 111.773 4.20055 111.812 5.40809C111.851 6.36245 111.402 6.6546 110.505 6.6546C107.307 6.63512 105.903 6.71302 102.725 6.61564C101.398 6.61564 101.164 6.84936 101.164 8.13481V11.0368C101.164 11.8548 101.379 12.3612 102.335 12.3223H105.143C106.059 12.3223 106.956 12.3223 107.873 12.3223C108.77 12.3223 109.218 12.6729 109.199 13.5883C109.179 14.7958 109.179 16.0228 109.199 17.2304C109.218 18.0873 108.809 18.4184 107.951 18.4184C107.132 18.399 106.313 18.399 105.494 18.399H102.335C102.315 18.399 102.296 18.399 102.276 18.399H97.1084C96.9914 18.399 96.6404 18.4184 96.4064 18.4184C95.5094 18.4184 95.0609 18.1263 95.0999 17.1719V11.699ZM85.9151 10.0435C85.9346 10.6083 86.1882 10.881 86.8122 11.0173C88.5672 11.3874 90.1272 12.4586 91.4533 13.9973C91.6093 14.192 91.9213 14.0946 91.9408 13.8414C91.9603 13.6662 91.9603 13.5493 91.9798 13.413C91.9798 12.6144 91.9798 11.8354 91.9798 11.0368C91.9798 10.063 91.9798 1.84388 91.9798 1.84388C91.9993 0.792149 91.5118 0.383141 90.2247 0.55843C89.3277 0.694766 88.3917 0.655813 87.4947 0.538953C86.3247 0.383141 85.8761 0.753196 85.8956 1.7465L85.9151 8.09586V10.0435ZM79.987 20.5998C79.9675 20.035 79.714 19.7623 79.09 19.626C77.335 19.2559 75.7749 18.1847 74.4489 16.6461C74.2929 16.4513 73.9809 16.5487 73.9614 16.8019C73.9419 16.9772 73.9419 17.094 73.9224 17.2304C73.9224 18.0289 73.9224 18.808 73.9224 19.6065C73.9224 20.5803 73.9224 29.2474 73.9224 29.2474C73.9029 30.2991 74.3904 30.7082 75.6774 30.5329C76.5744 30.3965 77.5105 30.4355 78.4075 30.5523C79.5775 30.7082 80.026 30.3381 80.0065 29.3448L79.987 22.5475V20.5998ZM91.9798 19.8402C91.5508 15.2827 88.4307 12.3028 83.9456 12.3028H83.5556H81.1375C80.182 12.3612 79.9675 11.8354 79.9675 11.0173V7.66738C79.9675 7.47261 79.9675 7.3168 79.987 7.18046V1.68807C79.987 1.06482 79.48 0.538953 78.8365 0.538953C76.9644 0.538953 74.9754 0.538953 74.9754 0.538953C74.0979 0.5 73.8834 0.850578 73.9029 1.66859C73.9419 4.86275 73.9224 7.62842 73.9224 10.8226C74.3514 15.3801 77.4715 18.36 81.9566 18.36H84.7646C85.7201 18.3016 85.9346 18.8274 85.9346 19.6455V22.9954C85.9346 23.1902 85.9346 23.346 85.9151 23.4823V29.4422C85.9151 30.0654 86.4222 30.5913 87.0657 30.5913C88.9377 30.5913 90.9268 30.5913 90.9268 30.5913C91.8043 30.6302 92.0188 30.2797 91.9993 29.4617C91.9603 26.248 91.9798 23.0344 91.9798 19.8402ZM69.3593 0.519477H54.5194C53.4079 0.5 52.9789 0.870055 53.0764 1.98022C53.1544 3.03195 53.1544 4.18107 53.0764 5.23281C52.9984 6.32349 53.4664 6.59617 54.4804 6.59617H69.5738C70.5683 6.59617 70.9583 6.28454 70.8998 5.29124C70.8413 4.2395 70.8218 3.09038 70.8998 2.03865C70.9973 0.850578 70.5098 0.5 69.3593 0.519477ZM63.7821 8.27115C63.5286 8.27115 63.1191 8.29063 63.0606 8.29063H61.0326C60.9741 8.29063 60.5646 8.27115 60.3111 8.27115C59.4141 8.27115 58.9655 8.5633 59.0045 9.51765C59.0435 14.2115 59.024 11.4069 59.024 16.0813C59.024 20.853 59.0435 24.4562 59.0045 29.2279C59.0045 30.2212 59.3166 30.6108 60.3111 30.5523C61.3641 30.4939 62.5146 30.4744 63.5676 30.5523C64.7572 30.6497 65.0887 30.1628 65.0887 29.0137C65.0302 24.2419 65.0692 20.6388 65.0692 15.867C65.0692 11.2705 65.0497 14.1141 65.0887 9.49817C65.1277 8.5633 64.6792 8.27115 63.7821 8.27115ZM111.812 25.9753C111.909 24.7873 111.441 24.4367 110.31 24.4562C107.951 24.4562 102.335 24.4367 102.335 24.4367C102.296 24.4367 102.218 24.4367 102.101 24.4367C101.34 24.3977 101.164 23.8914 101.164 23.1512C101.164 23.1512 101.164 23.1512 101.164 23.1318C101.164 22.4306 101.164 21.5931 101.164 21.262C101.203 20.3077 100.755 20.0155 99.858 20.0155C99.6045 20.0155 99.195 20.035 99.1364 20.035H97.1084C97.0499 20.035 96.6404 20.0155 96.3869 20.0155C95.4899 20.0155 95.0414 20.3077 95.0804 21.262C95.0804 21.8658 95.0999 21.9242 95.0999 22.2164C95.0999 22.489 95.0999 24.6315 95.0999 25.43C95.0999 25.4884 95.0999 25.5469 95.0999 25.6248C95.0999 26.2285 95.0999 26.287 95.0999 26.5791C95.0999 27.514 95.0999 28.1762 95.0804 29.4227C95.0804 30.2407 95.2754 30.5913 96.1529 30.5523C96.1529 30.5523 101.886 30.5523 103.017 30.5523C104.051 30.5523 108.38 30.5329 110.232 30.5718C110.291 30.5718 110.369 30.5718 110.466 30.5718C111.461 30.5718 111.87 30.2602 111.792 29.2474C111.753 28.1957 111.734 27.0271 111.812 25.9753Z"
        />
        <path
            d="M47.6945 54.8201C47.6945 54.8007 47.6945 54.7812 47.6945 54.7422C47.6945 53.9632 47.4995 53.5152 46.7585 53.4568H46.349C45.218 53.4957 44.0869 53.4957 42.9559 53.4568H42.6634C41.8834 53.4957 41.6494 53.9437 41.6494 54.7422C41.6494 54.7812 41.6494 54.8201 41.6494 54.8591C41.6299 57.021 41.6104 59.7088 41.5909 62.0849C41.5519 63.273 42.0784 63.7988 43.2874 63.7988C43.2874 63.7988 44.6719 63.7988 46.544 63.7988C47.168 63.7988 47.6945 63.2925 47.6945 62.6497C47.6945 59.8451 47.675 58.2285 47.675 56.5341C47.6555 56.164 47.6945 55.4824 47.6945 54.8201Z"
        />
        <path
            d="M60.2137 62.6108C59.4922 60.6436 58.7707 58.696 58.0297 56.7483C57.3277 54.8591 56.6257 52.9699 55.9236 51.0806C55.9041 51.0417 55.8846 51.0027 55.8651 50.9638C55.7481 50.6521 55.7481 50.4769 55.8846 50.3016C58.3417 48.685 59.8042 45.783 59.8042 42.1214C59.3362 37.2523 55.9821 33.727 50.873 33.727C50.873 33.727 48.494 33.7465 47.0704 33.7465C45.6469 33.7465 43.2289 33.727 43.2289 33.727C42.0393 33.7075 41.5128 34.2529 41.5518 35.4215C41.5518 35.9084 41.5908 39.1999 41.6103 42.7057C41.6103 43.4848 41.8053 43.9327 42.5268 43.9912H42.9364C44.0479 43.9522 45.1789 43.9522 46.2904 43.9912H46.5829C47.3434 43.9522 47.597 43.5237 47.597 42.7057C47.597 42.6667 47.597 42.6278 47.597 42.5888C47.597 41.9072 47.597 41.2644 47.5775 40.9333C47.4995 40.0179 47.7335 39.6868 48.728 39.7453C49.2545 39.7647 50.0345 39.7453 50.912 39.7453C52.5306 39.7453 53.8566 41.1476 53.8566 42.7057C53.8566 44.4586 52.6476 45.4909 50.9705 45.4909H49.0205C48.9035 45.4909 48.728 45.4909 48.572 45.4909H42.9754C41.9028 45.4909 41.5518 46.0362 41.6103 47.0879C41.6688 48.1007 41.7078 49.1135 41.6103 50.1263C41.4738 51.4507 42.0588 51.7428 43.2484 51.7428C43.2679 51.7428 43.2679 51.7428 43.2874 51.7428H47.792C48.26 51.7428 49.157 51.8792 49.391 52.5219C49.469 52.7361 49.5665 52.9504 49.6445 53.1841C50.5025 55.2876 51.887 58.7544 52.5501 60.9747C53.3301 63.5261 54.1296 64.052 56.3332 63.7988C56.9572 63.7404 57.9517 63.7988 58.8487 63.7988H59.2387C59.7067 63.7988 60.0382 63.7014 60.1747 63.5067C60.2332 63.4093 60.2722 63.3119 60.2722 63.195C60.3307 63.0003 60.2917 62.786 60.2137 62.6108Z"
        />
    </g>
    <defs>
        <clipPath id="clip0_777_7189">
            <rect width="178" height="64" transform="translate(0.132812 0.5)" />
        </clipPath>
    </defs>
</svg>